<svg width="20" height="20" viewBox="0 0 20 20" fill="none" xmlns="http://www.w3.org/2000/svg">
<path d="M8.19448 0.755345L0.704421 8.32456C0.481062 8.55017 0.30388 8.81811 0.183009 9.11303C0.0621376 9.40795 -5.09982e-05 9.72408 3.13792e-08 10.0433V18.2308C3.13792e-08 18.7 0.184333 19.15 0.512448 19.4818C0.840562 19.8136 1.28558 20 1.74961 20H6.21557C6.67959 20 7.12461 19.8136 7.45272 19.4818C7.78084 19.15 7.96517 18.7 7.96517 18.2308V15.7086C7.96517 15.6322 7.98005 15.5567 8.00895 15.4861C8.03784 15.4156 8.0802 15.3515 8.13359 15.2976C8.18699 15.2436 8.25037 15.2008 8.32012 15.1717C8.38988 15.1425 8.46463 15.1275 8.54012 15.1275H11.4599C11.5354 15.1275 11.6101 15.1425 11.6799 15.1717C11.7496 15.2008 11.813 15.2436 11.8664 15.2976C11.9198 15.3515 11.9622 15.4156 11.9911 15.4861C12.02 15.5567 12.0348 15.6322 12.0348 15.7086V18.2308C12.0348 18.7 12.2192 19.15 12.5473 19.4818C12.8754 19.8136 13.3204 20 13.7844 20H18.2504C18.7144 20 19.1594 19.8136 19.4876 19.4818C19.8157 19.15 20 18.7 20 18.2308V10.0433C20 9.72408 19.9379 9.40795 19.817 9.11303C19.6961 8.81811 19.5189 8.55017 19.2956 8.32456L11.8025 0.755345C11.324 0.271691 10.6751 0 9.9985 0C9.32192 0 8.67302 0.271691 8.19448 0.755345Z" fill="black"/>
</svg>
