<svg width="21" height="24" viewBox="0 0 21 24" fill="none" xmlns="http://www.w3.org/2000/svg">
<path d="M13.2848 5.38117C14.7707 5.38117 15.9753 4.17655 15.9753 2.69058C15.9753 1.20462 14.7707 0 13.2848 0C11.7988 0 10.5942 1.20462 10.5942 2.69058C10.5942 4.17655 11.7988 5.38117 13.2848 5.38117Z" fill="#1B1B1B"/>
<path d="M20.0009 9.25354C17.5965 9.00624 15.2654 6.40442 14.6787 6.04411C14.3187 5.78424 13.8931 5.61407 13.4859 5.55056C13.4859 5.55056 13.1964 5.49049 12.8973 5.52351C12.611 5.55531 12.1757 5.5701 11.5383 6.04522C11.4921 6.07392 11.1665 6.35739 11.0639 6.48092C10.2706 7.30322 8.0723 9.73491 6.97807 12.4857C6.82342 12.8765 6.92154 13.3009 7.19091 13.5872L5.90585 15.877L4.0956 14.8601C3.87952 14.7385 3.60526 14.8144 3.48386 15.0308L0.0575163 21.0851C-0.0637848 21.3013 0.0129616 21.5767 0.229577 21.6971L1.60001 22.4677C1.38184 22.8561 1.43435 23.3584 1.76392 23.6924C2.16133 24.098 2.81423 24.103 3.2192 23.7044C3.59561 23.3331 3.62635 22.7435 3.30738 22.337L5.17829 19.0546L6.48899 16.719L8.11361 13.9027C8.46491 13.8468 8.77975 13.6126 8.92122 13.2574C9.38431 12.0914 10.1015 10.9679 10.794 10.037L11.1204 13.7878C11.1582 14.2284 11.3418 14.598 11.6138 14.8898C10.7724 16.4157 8.50791 20.5883 7.69036 22.006C7.32413 22.6422 7.54182 23.4551 8.17765 23.8218C8.41638 23.9586 8.68055 24.015 8.93639 23.9966C9.36191 23.9658 9.76455 23.7307 9.99334 23.3338C10.755 22.0134 12.7417 18.0059 13.613 16.4995C14.3116 17.6604 15.5018 19.7967 17.0118 23.2082C17.2313 23.7053 17.7178 23.9999 18.2285 23.9999C18.4091 23.9999 18.5911 23.9636 18.7664 23.8858C19.4374 23.5889 19.741 22.804 19.4434 22.1331C17.6627 18.1073 16.3517 15.8724 15.6253 14.6954C15.9124 14.335 16.0853 13.887 16.0401 13.3612L15.7311 9.80856C16.626 10.523 17.7936 11.1249 19.7873 11.3311C19.8243 11.335 19.8602 11.3368 19.8964 11.3368C20.4245 11.3368 20.8785 10.9373 20.934 10.4001C20.9921 9.82582 20.5751 9.31259 20.0009 9.25354ZM2.47656 23.3788C2.26954 23.3788 2.10165 23.211 2.10165 23.0041C2.10165 22.7972 2.26954 22.6294 2.47656 22.6294C2.68333 22.6294 2.85127 22.7972 2.85127 23.0041C2.85117 23.2111 2.68338 23.3788 2.47656 23.3788Z" fill="#1B1B1B"/>
</svg>
