<svg width="23" height="23" viewBox="0 0 23 23" fill="none" xmlns="http://www.w3.org/2000/svg">
<path d="M20.2148 3.81836C20.2148 2.45601 19.1065 1.34766 17.7441 1.34766H17.25V3.36914C17.25 3.74127 16.9483 4.04297 16.5762 4.04297C16.204 4.04297 15.9023 3.74127 15.9023 3.36914V1.34766H12.9375V3.36914C12.9375 3.74127 12.6358 4.04297 12.2637 4.04297C11.8915 4.04297 11.5898 3.74127 11.5898 3.36914V1.34766H8.625V3.36914C8.625 3.74127 8.32331 4.04297 7.95117 4.04297C7.57904 4.04297 7.27734 3.74127 7.27734 3.36914V1.34766H4.3125V3.36914C4.3125 3.74127 4.0108 4.04297 3.63867 4.04297C3.26654 4.04297 2.96484 3.74127 2.96484 3.36914V1.34766H2.4707C1.10836 1.34766 0 2.45601 0 3.81836V5.83984H20.2148V3.81836Z" fill="#1B1B1B"/>
<path d="M4.3125 0.673828C4.3125 0.301695 4.0108 0 3.63867 0C3.26654 0 2.96484 0.301695 2.96484 0.673828V1.34766H4.3125V0.673828Z" fill="#1B1B1B"/>
<path d="M17.25 0.673828C17.25 0.301695 16.9483 0 16.5762 0C16.204 0 15.9023 0.301695 15.9023 0.673828V1.34766H17.25V0.673828Z" fill="#1B1B1B"/>
<path d="M12.9375 0.673828C12.9375 0.301695 12.6358 0 12.2637 0C11.8915 0 11.5898 0.301695 11.5898 0.673828V1.34766H12.9375V0.673828Z" fill="#1B1B1B"/>
<path d="M8.625 0.673828C8.625 0.301695 8.3233 0 7.95117 0C7.57904 0 7.27734 0.301695 7.27734 0.673828V1.34766H8.625V0.673828Z" fill="#1B1B1B"/>
<path d="M18.0586 11.7695C18.8157 11.7695 19.542 11.9041 20.2148 12.1504V7.1875H0V17.2949C0 18.4096 0.906838 19.3164 2.02148 19.3164H11.896C11.8132 18.9099 11.7695 18.4892 11.7695 18.0586C11.7695 14.5908 14.5908 11.7695 18.0586 11.7695ZM15.543 9.5459H16.666C17.0381 9.5459 17.3398 9.84759 17.3398 10.2197C17.3398 10.5919 17.0381 10.8936 16.666 10.8936H15.543C15.1708 10.8936 14.8691 10.5919 14.8691 10.2197C14.8691 9.84759 15.1708 9.5459 15.543 9.5459ZM11.5449 9.5459H12.668C13.0401 9.5459 13.3418 9.84759 13.3418 10.2197C13.3418 10.5919 13.0401 10.8936 12.668 10.8936H11.5449C11.1728 10.8936 10.8711 10.5919 10.8711 10.2197C10.8711 9.84759 11.1728 9.5459 11.5449 9.5459ZM4.67188 16.958H3.54883C3.1767 16.958 2.875 16.6563 2.875 16.2842C2.875 15.912 3.1767 15.6104 3.54883 15.6104H4.67188C5.04401 15.6104 5.3457 15.912 5.3457 16.2842C5.3457 16.6563 5.04401 16.958 4.67188 16.958ZM4.67188 13.9258H3.54883C3.1767 13.9258 2.875 13.6241 2.875 13.252C2.875 12.8798 3.1767 12.5781 3.54883 12.5781H4.67188C5.04401 12.5781 5.3457 12.8798 5.3457 13.252C5.3457 13.6241 5.04401 13.9258 4.67188 13.9258ZM8.66992 16.958H7.54688C7.17474 16.958 6.87305 16.6563 6.87305 16.2842C6.87305 15.912 7.17474 15.6104 7.54688 15.6104H8.66992C9.04206 15.6104 9.34375 15.912 9.34375 16.2842C9.34375 16.6563 9.04206 16.958 8.66992 16.958ZM8.66992 13.9258H7.54688C7.17474 13.9258 6.87305 13.6241 6.87305 13.252C6.87305 12.8798 7.17474 12.5781 7.54688 12.5781H8.66992C9.04206 12.5781 9.34375 12.8798 9.34375 13.252C9.34375 13.6241 9.04206 13.9258 8.66992 13.9258ZM8.66992 10.8936H7.54688C7.17474 10.8936 6.87305 10.5919 6.87305 10.2197C6.87305 9.84759 7.17474 9.5459 7.54688 9.5459H8.66992C9.04206 9.5459 9.34375 9.84759 9.34375 10.2197C9.34375 10.5919 9.04206 10.8936 8.66992 10.8936ZM10.8711 13.252C10.8711 12.8798 11.1728 12.5781 11.5449 12.5781H12.668C13.0401 12.5781 13.3418 12.8798 13.3418 13.252C13.3418 13.6241 13.0401 13.9258 12.668 13.9258H11.5449C11.1728 13.9258 10.8711 13.6241 10.8711 13.252Z" fill="#1B1B1B"/>
<path d="M18.0586 13.1172C15.3339 13.1172 13.1172 15.3339 13.1172 18.0586C13.1172 20.7833 15.3339 23 18.0586 23C20.7833 23 23 20.7833 23 18.0586C23 15.3339 20.7833 13.1172 18.0586 13.1172ZM20.3047 18.7324H18.0586C17.6865 18.7324 17.3848 18.4307 17.3848 18.0586V15.8125C17.3848 15.4404 17.6865 15.1387 18.0586 15.1387C18.4307 15.1387 18.7324 15.4404 18.7324 15.8125V17.3848H20.3047C20.6768 17.3848 20.9785 17.6865 20.9785 18.0586C20.9785 18.4307 20.6768 18.7324 20.3047 18.7324Z" fill="#1B1B1B"/>
</svg>
