<svg xmlns="http://www.w3.org/2000/svg" xmlns:xlink="http://www.w3.org/1999/xlink" width="713" height="216" viewBox="0 0 713 216">
  <defs>
    <clipPath id="clip-path">
      <rect id="Rectangle_57" data-name="Rectangle 57" width="79.986" height="78.717" fill="#e32636"/>
    </clipPath>
    <clipPath id="clip-path-2">
      <rect id="Rectangle_82" data-name="Rectangle 82" width="61.286" height="79.791" fill="none"/>
    </clipPath>
    <clipPath id="clip-Logo_Option_6.3_17">
      <rect width="713" height="216"/>
    </clipPath>
  </defs>
  <g id="Logo_Option_6.3_17" data-name="Logo Option 6.3 – 17" clip-path="url(#clip-Logo_Option_6.3_17)">
    <g id="Group_200" data-name="Group 200" transform="translate(-16 -2)">
      <path id="Path_270" data-name="Path 270" d="M109.318,1.2,77.508-69.065,45.42,1.2,2.13-113.6H22.6L46.8-48.872,77.646-113.6l29.736,64.728L132.416-113.6h20.47Zm82.57-21.3L208.9-10.423A32.836,32.836,0,0,1,183.174,1.2a37.086,37.086,0,0,1-27.316-11.341,37.268,37.268,0,0,1-11.272-27.247,37.543,37.543,0,0,1,11.341-27.454,37.041,37.041,0,0,1,27.247-11.41q15.767,0,26.071,11.341t10.3,27.523a36.435,36.435,0,0,1-.83,8.16h-52.7a19.357,19.357,0,0,0,6.985,8.091,17.667,17.667,0,0,0,10.166,3.389A16.457,16.457,0,0,0,191.888-20.1Zm-26-25.31h32.779a16.822,16.822,0,0,0-5.74-8.713,15.383,15.383,0,0,0-9.751-3.181Q169.9-57.309,165.886-45.414Z" transform="translate(47.87 166.631)" fill="#e32636"/>
      <path id="Path_273" data-name="Path 273" d="M55.843-117.916a30.282,30.282,0,0,0-25.011,13.327V-144.9H11.592v72.4c0,25.174,19.881,45.412,44.251,45.412S100.093-47.33,100.093-72.5C100.093-97.514,80.213-117.916,55.843-117.916Zm0,71.08c-13.788,0-25.011-11.353-25.011-25.668,0-14.15,11.223-25.668,25.011-25.668S80.854-86.654,80.854-72.5C80.854-58.189,69.631-46.836,55.843-46.836Z" transform="translate(266.068 195.9)" fill="#e32636"/>
      <g id="Group_188" data-name="Group 188" transform="translate(390.224 51)">
        <path id="Path_271" data-name="Path 271" d="M28.616,3.673H8.946V-113.6h19.67Zm37.5,0H46.446V-113.6h19.67Z" transform="translate(-8.946 113.6)" fill="#000"/>
      </g>
      <path id="Path_274" data-name="Path 274" d="M17.3-79.375A11.9,11.9,0,0,0,28.994-90.787,11.642,11.642,0,0,0,17.3-102.339,11.494,11.494,0,0,0,5.891-90.787,11.745,11.745,0,0,0,17.3-79.375Zm-10.577,81H28.02V-73.391H6.726Z" transform="translate(457.569 165.587)" fill="#000"/>
      <g id="Group_189" data-name="Group 189" transform="translate(572.256 51)">
        <rect id="Rectangle_81" data-name="Rectangle 81" width="43.683" height="20.318" transform="translate(0.001 41.207)" fill="#e32636"/>
        <path id="Path_272" data-name="Path 272" d="M54.844-1.888V-23.7c-13.085,0-19.408-2.58-19.408-23.115v-73.056H13.628V-41.9C13.628-7.739,35.035-1.888,54.844-1.888Z" transform="translate(-13.628 119.867)" fill="#000"/>
      </g>
      <g id="Group_150" data-name="Group 150" transform="translate(615.94 89.603)">
        <g id="Group_149" data-name="Group 149" clip-path="url(#clip-path)">
          <path id="Path_113" data-name="Path 113" d="M48.231,117.883v-.01a8.406,8.406,0,0,0,1.054-.992l0,.011c.395.623.928,1.449,1.333,2.064a29.064,29.064,0,0,1,.432,3.5,16.426,16.426,0,0,1-1.588,1.139c-.461-.757-1.07-1.769-1.52-2.532.151-1.1.247-2.16.286-3.174" transform="translate(21.386 -98.48)" fill="#e32636"/>
          <path id="Path_114" data-name="Path 114" d="M84.693,204.41l.007-.024c.823-.217,1.913-.54,2.716-.824l0,.012c.533.854,1.246,1.991,1.784,2.843-.194,1.335-.454,2.682-.781,4.029-.9.326-2.125.722-3.05.981-.588-.967-1.371-2.257-1.955-3.226.477-1.275.905-2.542,1.282-3.791" transform="translate(-22.343 -171.514)" fill="#e32636"/>
          <path id="Path_115" data-name="Path 115" d="M159.587,310.986c-.343-.593-.678-1.169-.977-1.682l-.011-.018c1.032-1.693,2.007-3.417,2.921-5.157.3-.034.618-.072.948-.113a44.706,44.706,0,0,1-2.547,7.549l-.334-.578" transform="translate(-107.451 -256.154)" fill="#e32636"/>
          <path id="Path_116" data-name="Path 116" d="M166.811,2.731h.013a18.013,18.013,0,0,1,1.846-.982,30.816,30.816,0,0,1,4.138.22l2.2.838a13.76,13.76,0,0,0-1.707.5,30.624,30.624,0,0,0-4.005.182c-.744-.227-1.737-.528-2.482-.752" transform="translate(-121.28 -1.47)" fill="#e32636"/>
          <path id="Path_117" data-name="Path 117" d="M313.484,20.913q1.016-.348,2.049-.646c.947.213,2.207.51,3.149.744h0a27.776,27.776,0,0,0-1.914,2.613l-.033.013h0l-.256.1c-.132.05-.264.1-.4.152l-.316.126-.348.139c-.117.048-.234.1-.35.146l-.309.129c-.126.054-.252.109-.377.164l-.28.122c-.128.057-.255.115-.383.173l-.271.123c-.124.057-.247.116-.371.175l-.28.132-.329.161-.32.157-.267.135c-.119.061-.239.12-.358.182-1.047-.221-2.445-.5-3.5-.7a35.1,35.1,0,0,1,2.124-3.035q.655-.288,1.32-.554,1-.4,2.014-.748" transform="translate(-287.19 -17.076)" fill="#e32636"/>
          <path id="Path_118" data-name="Path 118" d="M414.011,75.373a45.283,45.283,0,0,0-4.126,4.161c-.344-.023-.734-.043-1.134-.059-.631-.026-1.287-.043-1.832-.04l.021-.028v0c.17-.632.382-1.362.61-2.091.244-.774.506-1.547.745-2.2q.484-.541.987-1.062.753-.781,1.545-1.517t1.618-1.424c.832.017,1.94.076,2.768.149-.418,1.216-.906,2.862-1.2,4.113" transform="translate(-399.29 -59.916)" fill="#e32636"/>
          <path id="Path_119" data-name="Path 119" d="M134.922,62.282a36.58,36.58,0,0,1,3.766-1.436c.842.129,1.967.29,2.812.4a13.989,13.989,0,0,0-.377,1.785c-.98.619-1.994,1.32-3.033,2.093-1.023-.1-2.387-.238-3.407-.36.038-.745.126-1.739.239-2.477" transform="translate(-82.718 -51.267)" fill="#e32636"/>
          <path id="Path_120" data-name="Path 120" d="M308.967,64.8a55.541,55.541,0,0,0-4.924,2.789l-2.621-.523a30.522,30.522,0,0,1,7.691-2.81l0,.008c-.053.185-.1.366-.149.536" transform="translate(-276.584 -54.137)" fill="#e32636"/>
          <path id="Path_121" data-name="Path 121" d="M407.347,98.181c.457.069.975.149,1.5.232a2.324,2.324,0,0,0,.316,2.024,30.97,30.97,0,0,0-5.08,6.927c-.385-.043-.757-.083-1.1-.118.011-.7.036-1.516.072-2.334.042-.9.1-1.8.158-2.57a45.284,45.284,0,0,1,4.126-4.161" transform="translate(-392.627 -82.724)" fill="#e32636"/>
          <path id="Path_122" data-name="Path 122" d="M393.051,123.955c-.486-.061-1.039-.127-1.6-.192a30.025,30.025,0,0,1,4.679-6.287,2.431,2.431,0,0,0,.977.3c-.022.654-.036,1.295-.037,1.858a55.873,55.873,0,0,0-4.016,4.32" transform="translate(-378.745 -98.981)" fill="#e32636"/>
          <path id="Path_123" data-name="Path 123" d="M375.184,182.971l-1.826-.244c-1-.132-2.027-.267-2.886-.377-.055-.357-.113-.742-.171-1.141a45.1,45.1,0,0,1,6.859-.627l-.088.1q-.964,1.124-1.888,2.288" transform="translate(-355.473 -152.152)" fill="#e32636"/>
          <path id="Path_124" data-name="Path 124" d="M366.459,152.827a46.171,46.171,0,0,0-8,.639l-.033-.246q-.029-.217-.057-.435a44.56,44.56,0,0,1,8.546-3.818c.138,1,.293,2.019.438,2.873q-.453.489-.9.987" transform="translate(-343.79 -125.515)" fill="#e32636"/>
          <path id="Path_125" data-name="Path 125" d="M366.126,131.189c1.362.222,3.178.519,4.54.744.035.293.074.606.116.931a45.714,45.714,0,0,0-8.545,3.74c-.046-.382-.089-.751-.126-1.094a55.836,55.836,0,0,1,4.016-4.32" transform="translate(-347.805 -110.535)" fill="#e32636"/>
          <path id="Path_126" data-name="Path 126" d="M169.585,32.956h0l.027-.007a34.591,34.591,0,0,1,4.323-.817c.8.241,1.868.564,2.667.807a16.447,16.447,0,0,0-1.389,1.53,36.868,36.868,0,0,0-4.124,1.241c-.9-.218-2.092-.51-2.989-.731a21.368,21.368,0,0,1,1.482-2.024" transform="translate(-123.084 -27.073)" fill="#e32636"/>
          <path id="Path_127" data-name="Path 127" d="M246.645,45.512c.19-.7.481-1.619.743-2.293a34.625,34.625,0,0,1,3.875-1.166c.835.214,1.949.494,2.785.7a16.645,16.645,0,0,0-.751,1.793,38.479,38.479,0,0,0-3.512,1.61c-.943-.189-2.2-.446-3.141-.644" transform="translate(-212.892 -35.433)" fill="#e32636"/>
          <path id="Path_128" data-name="Path 128" d="M227.441,62.8q-2.062,1.3-4.163,2.861c-1.371-.2-3.2-.476-4.564-.7.016-1.077.081-2.513.184-3.585a52.912,52.912,0,0,1,4.827-2.213c1.2.231,2.8.529,4,.741-.126.862-.24,2.021-.279,2.891" transform="translate(-182.167 -49.85)" fill="#e32636"/>
          <path id="Path_129" data-name="Path 129" d="M362.209,56.307a30.894,30.894,0,0,0-3.053,2.02,2.465,2.465,0,0,0-3.962,1.169c-.523-.082-1.034-.161-1.486-.229.306-1.248.777-2.9,1.2-4.11q1.162-.864,2.377-1.648.607-.392,1.226-.763t1.249-.722c1.051.2,2.45.478,3.5.7-.195.571-.407,1.248-.6,1.924-.167.574-.323,1.148-.447,1.657" transform="translate(-338.961 -43.835)" fill="#e32636"/>
          <path id="Path_130" data-name="Path 130" d="M354.106,116.522c0-.555.017-1.186.038-1.83a2.472,2.472,0,0,0,2.1-.88q1.92,1.019,3.752,2.235c-.454.4-.9.8-1.349,1.219-1.362-.225-3.178-.523-4.54-.745" transform="translate(-335.758 -95.894)" fill="#e32636"/>
          <path id="Path_131" data-name="Path 131" d="M340.125,84.812c-.025.69-.04,1.376-.04,1.969q-1.11.865-2.192,1.786a45.52,45.52,0,0,0-4.13-2.476,2.467,2.467,0,0,0-.115-1.491,29.435,29.435,0,0,1,3.97-2.5l2.621.523c-.047.654-.088,1.425-.115,2.19" transform="translate(-312.782 -69.174)" fill="#e32636"/>
          <path id="Path_132" data-name="Path 132" d="M204.864,98.39c-.783-.057-1.826-.144-2.607-.219-.118-.661-.256-1.547-.334-2.214q1.183-.877,2.351-1.616c.673.079,1.571.175,2.245.237.056.551.156,1.283.251,1.828q-.928.932-1.906,1.984" transform="translate(-158.573 -79.489)" fill="#e32636"/>
          <path id="Path_133" data-name="Path 133" d="M173.376,114.139c-.6,1.01-1.239,2.067-1.91,3.163-1.03.02-2.405.028-3.436.015-.314-.945-.712-2.212-.986-3.169q1.319-1.42,2.579-2.685c.869.018,2.029.026,2.9.011.237.805.578,1.872.854,2.665" transform="translate(-119.689 -93.915)" fill="#e32636"/>
          <path id="Path_134" data-name="Path 134" d="M119.046,106.73c-.883.127-2.063.274-2.95.361-.409-.885-.94-2.072-1.322-2.97.614-1,1.2-1.971,1.749-2.9.729-.078,1.7-.2,2.422-.32.348.766.828,1.781,1.2,2.534-.321,1.065-.69,2.164-1.1,3.291" transform="translate(-58.232 -85.019)" fill="#e32636"/>
          <path id="Path_135" data-name="Path 135" d="M104.449,154.714c.656-.188,1.525-.466,2.165-.706.46.779,1.079,1.813,1.551,2.585-.1,1.214-.254,2.458-.472,3.721h0c-.791.275-1.859.6-2.669.81-.523-.9-1.208-2.111-1.709-3.025.425-1.159.8-2.292,1.135-3.388" transform="translate(-44.443 -129.762)" fill="#e32636"/>
          <path id="Path_136" data-name="Path 136" d="M443.007,125.595q.283-.411.576-.814t.594-.8c.545,0,1.2.014,1.832.039.4.016.79.036,1.134.059-.061.768-.116,1.672-.158,2.57-.038.818-.064,1.632-.072,2.334v0c-.253.336-.5.678-.746,1.022a3.5,3.5,0,0,0-2.861,3.824c-.248-.011-.51-.02-.776-.029-.605-.021-1.229-.036-1.75-.04l-.015.032v0c0-.686.019-1.48.048-2.28.035-.913.088-1.835.148-2.616l.017-.03q.23-.415.472-.827.725-1.236,1.558-2.447" transform="translate(-436.548 -104.464)" fill="#e32636"/>
          <path id="Path_137" data-name="Path 137" d="M453.22,197.941c-.054-.375-.107-.751-.157-1.118a3.448,3.448,0,0,0,1.3,1.057q-.313,1.283-.516,2.6l-.227-.024c-.129-.753-.268-1.63-.4-2.512" transform="translate(-445.702 -165.836)" fill="#e32636"/>
          <path id="Path_138" data-name="Path 138" d="M418.531,185.712q-.593.8-1.159,1.624-1.11,1.612-2.066,3.219c-.454-.053-.968-.111-1.495-.169l-1.026-.113q.191-1.218.479-2.41a3.461,3.461,0,0,0,3.82-3.059c.424-.085.85-.162,1.276-.234.058.4.116.784.172,1.141Z" transform="translate(-403.533 -155.512)" fill="#e32636"/>
          <path id="Path_139" data-name="Path 139" d="M416.112,173.9q-.6.1-1.193.218c-.016-.069-.035-.138-.055-.206.383-.238.77-.468,1.159-.693q.028.217.057.435l.033.246" transform="translate(-401.439 -145.946)" fill="#e32636"/>
          <path id="Path_140" data-name="Path 140" d="M436.595,156.862a3.591,3.591,0,0,0-1.336-.079c.245-.344.492-.685.746-1.022v0l1.1.119q-.263.488-.507.984" transform="translate(-425.641 -131.237)" fill="#e32636"/>
          <path id="Path_141" data-name="Path 141" d="M418.809,158.694q-.759.429-1.5.889l-.916-.867q.329-.663.691-1.308c.565.066,1.118.132,1.6.192.038.343.08.712.126,1.094" transform="translate(-404.377 -132.627)" fill="#e32636"/>
          <path id="Path_142" data-name="Path 142" d="M382.458,198.651q-.288.408-.571.819c-.059.086-.116.171-.175.256q-.3.435-.585.867-.427.64-.836,1.275-.254.4-.5.79l-3.7-.5-.929-.125c-.234-.776-.5-1.681-.753-2.591-.272-.971-.537-1.949-.755-2.786q.956-1.606,2.066-3.219.566-.822,1.159-1.624v0c.859.111,1.891.246,2.886.377l1.826.244v0c.214.861.478,1.871.748,2.869.239.889.482,1.769.7,2.527v0q-.292.405-.58.813m-5.369,1.978a1.987,1.987,0,0,0,3.83-1.059,1.987,1.987,0,0,0-3.83,1.059" transform="translate(-361.878 -161.618)" fill="#e32636"/>
          <path id="Path_143" data-name="Path 143" d="M64.965,168.313c.2-1.151.342-2.285.43-3.391a15.306,15.306,0,0,0,1.483-1.063c.438.661,1.026,1.54,1.47,2.2a32.3,32.3,0,0,1,.094,3.605c-.544.393-1.294.883-1.876,1.217-.483-.765-1.125-1.786-1.6-2.554Z" transform="translate(1.302 -138.062)" fill="#e32636"/>
          <path id="Path_144" data-name="Path 144" d="M90.749,276.663c-.8.305-1.886.681-2.707.931-.454-.768-1.061-1.79-1.519-2.555.473-1.08.9-2.17,1.279-3.261.763-.218,1.773-.536,2.518-.809.434.7,1.01,1.631,1.442,2.331a33.708,33.708,0,0,1-1.012,3.363" transform="translate(-25.397 -228.309)" fill="#e32636"/>
          <path id="Path_145" data-name="Path 145" d="M122.235,366.2q.573-.735,1.138-1.506t1.12-1.577q.281-.407.556-.819c.044-.066.087-.133.131-.2.135-.2.269-.406.4-.61,1.633-.239,3.8-.6,5.423-.919.475.873,1.065,1.975,1.581,2.958a30.986,30.986,0,0,1-8.354,6.285c-.346-.635-.751-1.372-1.148-2.089-.3-.537-.59-1.063-.849-1.525" transform="translate(-71.844 -303.807)" fill="#e32636"/>
          <path id="Path_146" data-name="Path 146" d="M129.758,392.33c-.092.136-.182.272-.275.407q-1.132,1.642-2.34,3.124c-.752.146-1.624.3-2.5.455a30.861,30.861,0,0,0,5.119-3.987" transform="translate(-69.395 -330.564)" fill="#e32636"/>
          <path id="Path_147" data-name="Path 147" d="M19.672,164.709a15.89,15.89,0,0,0,1.148-1.757l1.734,2.4a36.559,36.559,0,0,1,.626,4.49,23.734,23.734,0,0,1-1.589,1.992c-.541-.825-1.264-1.925-1.806-2.749a39.153,39.153,0,0,0-.113-4.376" transform="translate(53.709 -137.298)" fill="#e32636"/>
          <path id="Path_148" data-name="Path 148" d="M20.674,287.372a27.111,27.111,0,0,0,.774-3.3c.444-.466,1.012-1.112,1.4-1.623.252.455.58,1.066.814,1.53a24.011,24.011,0,0,1-.625,3.29c-.447.551-1.075,1.262-1.575,1.767-.228-.505-.544-1.173-.793-1.668" transform="translate(53.065 -237.985)" fill="#e32636"/>
          <path id="Path_149" data-name="Path 149" d="M54.718,386.8h0c-.054-.388-.14-.848-.235-1.294-.067-.321-.138-.634-.207-.906q.928-1.106,1.8-2.307.29-.4.573-.811.556-.807,1.071-1.634c1.176-.695,2.717-1.671,3.834-2.459a22.686,22.686,0,0,1,.47,2.279q-.51.827-1.066,1.633-.63.913-1.3,1.774-.7.8-1.445,1.58c-.494.327-1.045.679-1.6,1.022C55.955,386.077,55.293,386.469,54.718,386.8Z" transform="translate(9.419 -317.972)" fill="#e32636"/>
          <path id="Path_150" data-name="Path 150" d="M51.029,386.939c.276-.279.577-.592.884-.919a39.28,39.28,0,0,1-3.251,4.326q.67-.862,1.3-1.774.556-.806,1.066-1.633" transform="translate(20.412 -325.247)" fill="#e32636"/>
          <path id="Path_151" data-name="Path 151" d="M44.656,219.672c.5-.293,1.158-.71,1.626-1.055.387.588.9,1.373,1.289,1.961a28.559,28.559,0,0,1-.284,3.247c-.548.382-1.3.862-1.882,1.191-.407-.66-.951-1.54-1.36-2.2.256-1.052.46-2.1.611-3.146" transform="translate(25.481 -184.199)" fill="#e32636"/>
          <path id="Path_152" data-name="Path 152" d="M.339,223.914a20.053,20.053,0,0,0,1.352-1.7c.4.6.925,1.391,1.316,1.991a30.46,30.46,0,0,1-.039,3.906c-.461.59-1.112,1.35-1.633,1.889-.4-.668-.929-1.556-1.335-2.218a34.054,34.054,0,0,0,.338-3.873" transform="translate(76.934 -187.234)" fill="#e32636"/>
          <path id="Path_153" data-name="Path 153" d="M24.459,328.417q.267-.676.51-1.36c.848-.87,1.936-2.075,2.694-3.025.133.416.283.929.408,1.415a39.034,39.034,0,0,1-4.079,8.316c-.305.327-.6.638-.882.915-.1-.691-.293-1.605-.473-2.28q.68-1.3,1.262-2.637.291-.668.559-1.345" transform="translate(48.35 -273.018)" fill="#e32636"/>
          <path id="Path_154" data-name="Path 154" d="M134.9,417.584a30.874,30.874,0,0,0,4.64-2.366c.881-.149,1.754-.306,2.505-.456.166.362.352.775.54,1.2.27.607.542,1.235.76,1.764h0a38.6,38.6,0,0,1-3.934,3.618c-.777.137-1.689.286-2.6.423-.854.128-1.7.246-2.439.338l-.026.019c-.228-.489-.509-1.068-.788-1.629-.2-.394-.389-.779-.562-1.116l.024-.021q.949-.842,1.879-1.773" transform="translate(-84.292 -349.465)" fill="#e32636"/>
          <path id="Path_155" data-name="Path 155" d="M101.148,430.425c-.063-.36-.16-.787-.265-1.2-.07-.281-.144-.554-.216-.793a38.578,38.578,0,0,0,3.934-3.618h0c.688-.219,1.486-.485,2.281-.763.832-.291,1.662-.6,2.365-.872.068.273.14.586.208.906.094.446.181.906.235,1.294v0q-.244.248-.492.49-1.24,1.211-2.56,2.278-.528.427-1.067.83c-.683.247-1.49.524-2.3.788-.743.241-1.485.47-2.127.659" transform="translate(-45.555 -356.556)" fill="#e32636"/>
          <path id="Path_156" data-name="Path 156" d="M82.283,426.206q.248-.242.492-.49v0c.575-.326,1.236-.718,1.893-1.122.552-.34,1.1-.689,1.593-1.016-.167.174-.335.347-.506.519a39.416,39.416,0,0,1-7.231,5.713,4.629,4.629,0,0,0,.13-.494q.539-.4,1.067-.83,1.319-1.066,2.56-2.278" transform="translate(-18.639 -356.891)" fill="#e32636"/>
          <path id="Path_157" data-name="Path 157" d="M184.111,487.064q.287-.06.574-.126.861-.2,1.717-.452.285-.084.57-.175.569-.182,1.135-.388.283-.1.566-.212c1.395-.135,3.252-.354,4.637-.563a4.214,4.214,0,0,1-.2.624,39.406,39.406,0,0,1-9.156,1.644l0-.006a1.759,1.759,0,0,0,.156-.347" transform="translate(-142.284 -408.77)" fill="#e32636"/>
          <path id="Path_158" data-name="Path 158" d="M221.172,480.153q-.285.091-.57.175-.856.254-1.717.452-.287.066-.574.126c-.69-.018-1.5-.046-2.3-.083-.756-.035-1.509-.077-2.157-.119a11.572,11.572,0,0,0-.445-1.323,25.906,25.906,0,0,0,3.954-1.541c.747.018,1.618.026,2.489.027.887,0,1.774,0,2.534-.019a16.635,16.635,0,0,1,.489,1.705q-.282.109-.566.212-.566.206-1.136.387" transform="translate(-176.485 -402.612)" fill="#e32636"/>
          <path id="Path_159" data-name="Path 159" d="M245.786,496.033c.648.042,1.4.084,2.157.119.8.037,1.613.067,2.3.083a2.186,2.186,0,0,1-.156.347l0,.006a39.53,39.53,0,0,1-7.7-.294,23,23,0,0,0,3.389-.259Z" transform="translate(-208.419 -417.94)" fill="#e32636"/>
          <path id="Path_160" data-name="Path 160" d="M159.088,457.322c.734-.093,1.585-.211,2.439-.338.91-.136,1.823-.283,2.6-.423.07.239.144.513.215.793.1.411.2.838.265,1.2l-.056.036q-.545.355-1.1.686t-1.114.639q-.28.154-.563.3-.847.444-1.708.833c-1.387.2-3.243.435-4.638.565a17.2,17.2,0,0,0-.491-1.708,33.578,33.578,0,0,0,4.124-2.565Z" transform="translate(-109.013 -384.683)" fill="#e32636"/>
          <path id="Path_161" data-name="Path 161" d="M130.433,462.187q.553-.331,1.1-.686l.056-.036c.642-.188,1.384-.418,2.127-.659.807-.262,1.614-.537,2.3-.788-.033.152-.078.322-.131.495a39.052,39.052,0,0,1-9.034,4.078,3.59,3.59,0,0,0,.2-.629q.862-.39,1.708-.834.282-.148.563-.3.561-.307,1.114-.639" transform="translate(-75.993 -387.596)" fill="#e32636"/>
          <path id="Path_162" data-name="Path 162" d="M383.122,382.957c-.7-1.058-1.609-2.477-2.283-3.549.195-.859.455-1.775.772-2.737a3.519,3.519,0,0,0,1.312-.167,31.041,31.041,0,0,0,5.045,4.813c-.538.883-1.027,1.7-1.457,2.445-1.017-.239-2.373-.56-3.388-.806" transform="translate(-367.939 -317.229)" fill="#e32636"/>
          <path id="Path_163" data-name="Path 163" d="M388.449,379.282l.166.282a29.891,29.891,0,0,1-2.72-2.674l1.3.248c.371.644.81,1.4,1.25,2.144" transform="translate(-369.382 -317.554)" fill="#e32636"/>
          <path id="Path_164" data-name="Path 164" d="M343.852,361.178Q342.5,363,341.3,364.567c-.719-.13-1.564-.284-2.4-.439l-.561-.1a29.951,29.951,0,0,1-2.609-2.014l-.166-.282c-.44-.747-.879-1.5-1.25-2.144.509-1.01,1.077-2.077,1.7-3.191q.921-.151,1.837-.337c1.17.183,2.427.375,3.451.527.755,1.385,1.773,3.225,2.551,4.6" transform="translate(-316.498 -299.999)" fill="#e32636"/>
          <path id="Path_165" data-name="Path 165" d="M286.475,388.6c1.628.219,3.8.494,5.432.685.744,1.252,1.743,2.917,2.5,4.161q-1.36,1.436-2.669,2.645-.57-.121-1.133-.264a3.2,3.2,0,0,0-5.761-2.367c-.325-.517-.641-1.023-.918-1.47q1.2-1.56,2.548-3.389" transform="translate(-259.122 -327.422)" fill="#e32636"/>
          <path id="Path_166" data-name="Path 166" d="M246.086,419.379c1.719.153,4.013.334,5.736.445.2.321.417.678.642,1.045a3.475,3.475,0,0,0-.537,1.719,29.73,29.73,0,0,1-8.509-.565q1.306-1.208,2.669-2.645" transform="translate(-210.799 -353.354)" fill="#e32636"/>
          <path id="Path_167" data-name="Path 167" d="M244.855,445.907c-.292-.446-.628-.962-.967-1.483l-.622-.957a30.827,30.827,0,0,0,8.608.526,3.392,3.392,0,0,0,.419.89q-1.085.837-2.169,1.552c-.8-.068-1.741-.155-2.676-.248-.909-.092-1.815-.189-2.593-.279" transform="translate(-210.605 -373.65)" fill="#e32636"/>
          <path id="Path_168" data-name="Path 168" d="M466.284,255.366l-.009.029h0a35.3,35.3,0,0,0-1.132,4.525c-.713-.068-1.663-.146-2.377-.184-.507-1.4-1.151-3.272-1.6-4.69A33.229,33.229,0,0,1,462,250.12c.712.023,1.631.07,2.394.121l.316.022.041.141c.072.251.148.514.228.785a3.311,3.311,0,0,0,1.283,4.12l.019.058h0" transform="translate(-458.901 -210.743)" fill="#e32636"/>
          <path id="Path_169" data-name="Path 169" d="M490.681,218.7v0c.212,1.5.542,3.492.837,4.977a33.265,33.265,0,0,0-.836,4.926c-.17.019-.362.047-.558.08a8.692,8.692,0,0,0-.906.192c-.255-1.138-.549-2.6-.766-3.855-.025-.733-.031-1.466-.016-2.2a34.322,34.322,0,0,1,.554-3.766,10.854,10.854,0,0,1,1.071-.255c.218-.04.43-.073.62-.1" transform="translate(-488.428 -184.267)" fill="#e32636"/>
          <path id="Path_170" data-name="Path 170" d="M194,449.422c-.872,0-1.743-.01-2.489-.027-.23-.434-.512-.949-.791-1.447-.2-.352-.392-.7-.566-1q1.083-.713,2.169-1.552a3.364,3.364,0,0,0,6-1.283c.353-.011.694-.023,1.013-.036.173.337.367.722.562,1.116.278.561.56,1.141.788,1.629a33.573,33.573,0,0,1-4.124,2.565l-.027.014c-.76.013-1.647.02-2.534.019" transform="translate(-150.632 -374.167)" fill="#e32636"/>
          <path id="Path_171" data-name="Path 171" d="M274.2,483.75l.011,0c1.375.206,3.213.455,4.594.615a11.012,11.012,0,0,1,.444,1.322,23.029,23.029,0,0,1-3.389.259,39.385,39.385,0,0,1-4.771-.954,5.659,5.659,0,0,0-.287-.676,15.749,15.749,0,0,0,2.1-.263q.214-.041.429-.088.43-.094.865-.211" transform="translate(-241.891 -407.589)" fill="#e32636"/>
          <path id="Path_172" data-name="Path 172" d="M428.707,290.812q-.556,1.31-1,2.564a30.736,30.736,0,0,1-2.631-7.789c.073-.009.144-.021.214-.034.467.064.921.126,1.325.183.608,1.532,1.443,3.564,2.1,5.076" transform="translate(-415.642 -240.596)" fill="#e32636"/>
          <path id="Path_173" data-name="Path 173" d="M438.138,292.822c-.317-.681-.681-1.477-1.04-2.278-.368-.823-.732-1.651-1.038-2.361,0-.01,0-.02.006-.031a35.322,35.322,0,0,1,1.132-4.525h0l.2.026a3.28,3.28,0,0,0,.711.254,31.887,31.887,0,0,0,3.053,8.881,3.744,3.744,0,0,0-.335.476l-.654-.11c-.7-.116-1.429-.236-2.034-.333" transform="translate(-429.826 -238.975)" fill="#e32636"/>
          <path id="Path_174" data-name="Path 174" d="M388.31,326.542q-1.093.184-2.193.315a3.519,3.519,0,0,0-2.245-2.791q.426-1.055.912-2.09l1.391.222c.623,1.3,1.442,2.966,2.135,4.344" transform="translate(-368.759 -271.287)" fill="#e32636"/>
          <path id="Path_175" data-name="Path 175" d="M416.363,319.253c-.314.684-.612,1.375-.889,2.071a3.332,3.332,0,0,0-1.787.484c-.048-.094-.095-.189-.142-.283q.448-1.253,1-2.564l1.815.292" transform="translate(-401.483 -268.746)" fill="#e32636"/>
          <path id="Path_176" data-name="Path 176" d="M384.616,361.139q-.257-.287-.507-.582a3.356,3.356,0,0,0,1.313-2.054q1.1-.126,2.2-.307c-.619,1.114-1.188,2.182-1.7,3.191l-1.305-.248" transform="translate(-368.104 -301.804)" fill="#e32636"/>
          <path id="Path_177" data-name="Path 177" d="M445.852,369.662a13.954,13.954,0,0,0,.239,2.961h-.006c-.129-.027-.271-.055-.419-.083-.3-.058-.613-.116-.874-.156-.334-.467-.719-1.016-1.1-1.567s-.764-1.115-1.086-1.6l0,0q-.079-.214-.153-.432-.221-.653-.4-1.335-.232-.909-.379-1.868c.575.051,1.34.137,1.912.214.665,1.168,1.568,2.716,2.263,3.866" transform="translate(-435.64 -308.027)" fill="#e32636"/>
          <path id="Path_178" data-name="Path 178" d="M411.656,391.5c.806.166,1.879.391,2.683.563.675,1.07,1.586,2.489,2.282,3.545q-.155.48-.277.921a13.514,13.514,0,0,0-.3,1.361c-.593-.176-1.379-.409-1.979-.589l-.035-.011,0,0c-.343-.442-.741-.965-1.133-1.486-.352-.468-.7-.935-1-1.339a13.941,13.941,0,0,1-.239-2.961" transform="translate(-401.444 -329.863)" fill="#e32636"/>
          <path id="Path_179" data-name="Path 179" d="M376.929,418.513q.121-.441.277-.922c1.015.245,2.368.568,3.385.806.633.943,1.483,2.195,2.13,3.128-.562.649-1.061,1.2-1.491,1.633-.4-.127-.875-.277-1.346-.428s-.94-.305-1.342-.438l0-.005c-.31-.383-.673-.836-1.029-1.287-.311-.394-.618-.786-.883-1.126h0a13.493,13.493,0,0,1,.3-1.361" transform="translate(-362.028 -351.849)" fill="#e32636"/>
          <path id="Path_180" data-name="Path 180" d="M345.152,443.5c.545.791,1.274,1.843,1.824,2.63a13.226,13.226,0,0,1-2.452,1.046c-.469-.14-1.011-.3-1.556-.473-.609-.189-1.223-.383-1.743-.551-.232-.285-.5-.617-.769-.951s-.554-.694-.79-.992c.43-.437.929-.984,1.491-1.633,1.2.286,2.794.656,3.995.924" transform="translate(-320.465 -372.901)" fill="#e32636"/>
          <path id="Path_181" data-name="Path 181" d="M302.866,466.2a13.239,13.239,0,0,0,2.452-1.047c1.346.285,3.144.648,4.5.9.4.6.92,1.411,1.3,2.026q-.435.117-.865.211-.215.047-.429.088a15.722,15.722,0,0,1-2.1.263h-.01c-.565-.145-1.224-.318-1.881-.5s-1.312-.362-1.873-.524l-1.083-1.427" transform="translate(-278.807 -391.922)" fill="#e32636"/>
          <path id="Path_182" data-name="Path 182" d="M346.867,412.653c-.646-.935-1.5-2.187-2.131-3.132.431-.743.92-1.563,1.457-2.445a31.251,31.251,0,0,0,5.175,3.191,3.05,3.05,0,0,0,.508,2.4q-.519.485-1.011.914c-1.2-.269-2.8-.636-4-.924" transform="translate(-326.164 -342.988)" fill="#e32636"/>
          <path id="Path_183" data-name="Path 183" d="M347.633,407.215c.278.447.594.953.918,1.47-.043.062-.086.124-.125.191a30.131,30.131,0,0,1-3.756-2.206l.562.1c.838.156,1.682.31,2.4.44" transform="translate(-322.828 -342.647)" fill="#e32636"/>
          <path id="Path_184" data-name="Path 184" d="M300.059,443.991a26.137,26.137,0,0,1-3.223,1.869c-1.352-.257-3.153-.616-4.5-.9-.551-.788-1.281-1.842-1.826-2.634q.492-.427,1.012-.914a3.2,3.2,0,0,0,5.39-.216q.773.2,1.558.358l.622.957c.339.521.675,1.037.967,1.483" transform="translate(-265.81 -371.734)" fill="#e32636"/>
          <path id="Path_185" data-name="Path 185" d="M248.422,460.834a26.158,26.158,0,0,0,3.223-1.869c.778.09,1.684.188,2.593.279.935.094,1.873.182,2.677.248.173.3.369.645.566,1,.279.5.562,1.012.791,1.447a25.908,25.908,0,0,1-3.954,1.541c-1.381-.162-3.221-.4-4.6-.614-.381-.615-.9-1.427-1.3-2.03" transform="translate(-217.396 -386.708)" fill="#e32636"/>
          <path id="Path_186" data-name="Path 186" d="M458.72,313.936c.358.8.721,1.6,1.04,2.278a25.34,25.34,0,0,0-.363,3.9c-.573-.075-1.34-.166-1.916-.215-.635-1.213-1.459-2.842-2.052-4.076a26.817,26.817,0,0,1-.129-4.431c.715.04,1.669.114,2.382.185.306.71.669,1.537,1.038,2.361" transform="translate(-451.447 -262.367)" fill="#e32636"/>
          <path id="Path_187" data-name="Path 187" d="M423.481,349.8c-.693-1.152-1.6-2.7-2.263-3.869a25.278,25.278,0,0,1,.363-3.9c.6.1,1.335.217,2.034.333l.654.11a3.433,3.433,0,0,0,2.672,5.152c-.317.962-.577,1.878-.772,2.737-.806-.172-1.88-.4-2.687-.564" transform="translate(-413.269 -288.18)" fill="#e32636"/>
          <path id="Path_188" data-name="Path 188" d="M335,294.825h0c.708.094,1.523.2,2.348.3,1,.128,2.023.256,2.885.361.37.821.813,1.782,1.257,2.734.408.875.818,1.743,1.177,2.489l-.019.028-.682,1.018a44.824,44.824,0,0,1-7.368,1.9c-.7-1.383-1.522-3.061-2.146-4.367q1.146-2.158,2.546-4.469" transform="translate(-315.023 -248.41)" fill="#e32636"/>
          <path id="Path_189" data-name="Path 189" d="M346.7,350.171c-1.007-.15-2.241-.338-3.394-.518a45.948,45.948,0,0,0,4.513-1.177l-.449.678q-.34.515-.67,1.017" transform="translate(-321.882 -293.614)" fill="#e32636"/>
          <path id="Path_190" data-name="Path 190" d="M230.55,375.281c-.758-1.245-1.76-2.909-2.5-4.163q1.511-1.879,3.112-4.024l.02-.027c.833.053,1.8.107,2.767.156,1.105.057,2.222.109,3.17.144.411.717.9,1.558,1.386,2.391.28.48.56.956.824,1.4q-.066.68-.153,1.359-1.443,1.712-2.887,3.2c-1.723-.114-4.018-.288-5.737-.444" transform="translate(-195.244 -309.277)" fill="#e32636"/>
          <path id="Path_191" data-name="Path 191" d="M187.671,434.458c-.326.012-.673.024-1.033.036a3.66,3.66,0,0,0,.042-.8q1.474-.44,2.871-1.011-.93.93-1.879,1.773" transform="translate(-138.948 -364.566)" fill="#e32636"/>
          <path id="Path_192" data-name="Path 192" d="M179.9,397.862c.4.717.8,1.453,1.148,2.088a29.092,29.092,0,0,1-4.92,2L175.3,400.8a45.878,45.878,0,0,0,3.3-4.439l.453-.022c.258.461.551.987.849,1.525" transform="translate(-128.655 -333.94)" fill="#e32636"/>
          <path id="Path_193" data-name="Path 193" d="M203.55,396.844a44.767,44.767,0,0,1-2.868,3.778,3.329,3.329,0,0,0-1.063-.246q.32-1.714.508-3.443c.7-.01,1.467-.027,2.234-.05.4-.011.8-.024,1.188-.038" transform="translate(-154.991 -334.367)" fill="#e32636"/>
          <path id="Path_194" data-name="Path 194" d="M229.02,404.918q1.442-1.49,2.887-3.2c-.124.969-.276,1.935-.463,2.9a3.212,3.212,0,0,0-1.785,1.347c-.224-.366-.441-.72-.639-1.04" transform="translate(-187.976 -338.47)" fill="#e32636"/>
          <path id="Path_195" data-name="Path 195" d="M462.882,187.8c.05.368.1.744.157,1.118.128.883.266,1.759.4,2.512l-.016.031q-.462.917-.871,1.833-.681,1.525-1.217,3.039l-.316-.022c-.764-.051-1.684-.1-2.4-.122-.289-1.487-.63-3.478-.835-4.979q.386-1.272.873-2.54t1.079-2.526l.015-.032c.521.005,1.145.02,1.75.04.266.009.528.018.776.029a3.208,3.208,0,0,0,.6,1.618" transform="translate(-455.521 -156.812)" fill="#e32636"/>
          <path id="Path_196" data-name="Path 196" d="M456.343,224.787h0q.536-1.512,1.217-3.039.409-.915.87-1.833l.016-.031.227.024a30.836,30.836,0,0,0-.36,4.151,3.1,3.1,0,0,0-1.7,1.654c-.08-.271-.156-.534-.228-.785l-.04-.141" transform="translate(-450.531 -185.267)" fill="#e32636"/>
          <path id="Path_197" data-name="Path 197" d="M434.691,279.541a3.025,3.025,0,0,0,1.816-1.1q-.3.64-.57,1.274l-1.246-.173" transform="translate(-424.956 -234.604)" fill="#e32636"/>
          <path id="Path_198" data-name="Path 198" d="M426.569,221.077c.218.837.483,1.815.755,2.786.255.911.517,1.816.753,2.592l-.017.03q-.613,1.116-1.154,2.215a3.2,3.2,0,0,0-3.207-4.115,29.724,29.724,0,0,1,.349-3.79l1.026.113c.527.059,1.041.117,1.495.169" transform="translate(-414.795 -186.034)" fill="#e32636"/>
          <path id="Path_199" data-name="Path 199" d="M460.523,283.134l-.019-.058c.041.024.081.049.124.071l-.1-.014h0" transform="translate(-453.141 -238.51)" fill="#e32636"/>
          <path id="Path_200" data-name="Path 200" d="M382.564,290.71l-1.393-.222a44.558,44.558,0,0,1,3.3-5.851c.221.566.436,1.111.635,1.6q-1.4,2.307-2.546,4.469" transform="translate(-365.133 -239.825)" fill="#e32636"/>
          <path id="Path_201" data-name="Path 201" d="M390.606,256.746l.93.125c1.218.164,2.6.35,3.7.5l0,0c.276.756.6,1.626.94,2.5a45.8,45.8,0,0,0-3.961,6.933l-1.816-.292c-.65-1.514-1.492-3.545-2.1-5.078q.272-.633.57-1.274a3.143,3.143,0,0,0,.56-1.17q.542-1.1,1.154-2.215Z" transform="translate(-377.325 -216.325)" fill="#e32636"/>
          <path id="Path_202" data-name="Path 202" d="M449.482,390.266c.381.552.765,1.1,1.1,1.567h0c.092.209.189.414.292.614a39.293,39.293,0,0,1-2.808-3.7,1.854,1.854,0,0,1,.328-.084l0,0c.322.481.7,1.04,1.086,1.6" transform="translate(-441.429 -327.478)" fill="#e32636"/>
          <path id="Path_203" data-name="Path 203" d="M426.056,408.774c.26.042.576.1.873.156l.419.084h.006c.3.4.644.871,1,1.339.392.521.789,1.044,1.133,1.486l0,0h0a5.6,5.6,0,0,0,.327,1.106q-.71-.645-1.4-1.329-1.086-1.086-2.069-2.234c-.1-.2-.2-.405-.292-.614Z" transform="translate(-416.903 -344.419)" fill="#e32636"/>
          <path id="Path_204" data-name="Path 204" d="M403.172,428.283l.035.01c.6.18,1.385.414,1.978.589.264.34.571.732.882,1.126.356.451.718.9,1.029,1.287l0,0h0a5.854,5.854,0,0,0-.283.789,39.394,39.394,0,0,1-3.319-2.7,5.6,5.6,0,0,1-.327-1.105Z" transform="translate(-390.589 -360.857)" fill="#e32636"/>
          <path id="Path_205" data-name="Path 205" d="M376.479,447.447c.4.133.872.287,1.342.439s.941.3,1.346.428c.236.3.513.646.791.992s.536.667.768.951h0a4.042,4.042,0,0,1-.99.271,39.091,39.091,0,0,1-3.54-2.292,5.8,5.8,0,0,1,.283-.789Z" transform="translate(-359.966 -377.004)" fill="#e32636"/>
          <path id="Path_206" data-name="Path 206" d="M349.35,465.3c.521.168,1.134.362,1.743.551.545.169,1.087.334,1.556.473l1.083,1.427h0a8.971,8.971,0,0,1-1.054-.045,39.038,39.038,0,0,1-4.318-2.134,4.038,4.038,0,0,0,.99-.271Z" transform="translate(-328.59 -392.043)" fill="#e32636"/>
          <path id="Path_207" data-name="Path 207" d="M323.737,480.619c.561.162,1.216.345,1.873.524s1.315.353,1.881.5a5.739,5.739,0,0,1,.289.673,39.186,39.186,0,0,1-5.1-1.738,8.96,8.96,0,0,0,1.054.045Z" transform="translate(-298.595 -404.915)" fill="#e32636"/>
          <path id="Path_208" data-name="Path 208" d="M250.209.651h0a18.6,18.6,0,0,0-1.919,1.02l-.013,0-.014,0a33.489,33.489,0,0,0-4.184.79c-.706-.175-1.65-.4-2.36-.559A25.086,25.086,0,0,1,243.827.495,31.29,31.29,0,0,1,248.049,0h.027c.641.19,1.494.45,2.132.651" transform="translate(-208.279)" fill="#e32636"/>
          <path id="Path_209" data-name="Path 209" d="M412.779,54.021l0,0,0,0h0" transform="translate(-397.782 -45.514)" fill="#e32636"/>
          <path id="Path_210" data-name="Path 210" d="M367.577,36.046q-1.214.784-2.377,1.648c-.829-.071-1.937-.139-2.769-.151.323-.517.716-1.111,1.122-1.7.233-.333.47-.663.7-.975a39.13,39.13,0,0,1,5.391-3.574c.763.045,1.775.134,2.531.226a35.115,35.115,0,0,0-2.123,3.038q-.63.35-1.249.722t-1.226.763" transform="translate(-349.248 -26.371)" fill="#e32636"/>
          <path id="Path_211" data-name="Path 211" d="M318.094,9.319q-1.033.3-2.049.646t-2.014.747q-.665.266-1.32.554c-.758-.089-1.77-.186-2.534-.227a39.1,39.1,0,0,1,9.809-3.766c.324.053.641.107.919.158a33.326,33.326,0,0,0-2.811,1.887" transform="translate(-289.751 -6.128)" fill="#e32636"/>
          <path id="Path_212" data-name="Path 212" d="M417.789,56.667l-.028.023q-.827.689-1.618,1.424T414.6,59.632q-.5.521-.987,1.062c-.242.054-.515.13-.791.216l-.072.022A39.589,39.589,0,0,1,419.6,54l0,0,0,0h0c-.23.312-.467.642-.7.975-.408.584-.8,1.177-1.122,1.7" transform="translate(-404.606 -45.495)" fill="#e32636"/>
          <path id="Path_213" data-name="Path 213" d="M483.688,160.1v0q-.592,1.258-1.079,2.526t-.873,2.54l-.01.032v0c-.189.025-.4.059-.62.1a9.147,9.147,0,0,0-1.071.254c0-.661.008-1.43.031-2.2a39.245,39.245,0,0,1,2.163-7.666,12.093,12.093,0,0,1,1.657-.484c-.06.781-.113,1.7-.148,2.615-.031.8-.049,1.593-.048,2.28" transform="translate(-479.472 -130.77)" fill="#e32636"/>
          <path id="Path_214" data-name="Path 214" d="M501.566,263.556c.005.124.01.248.017.371,0,.084.01.167.015.251q.01.16.021.319.01.139.021.277c.007.1.016.191.024.286s.018.2.028.3.017.169.027.254c.011.107.023.215.036.322.007.063.016.127.024.19q.055.441.122.88a39.464,39.464,0,0,1-1.122-8.093c.219,1.255.506,2.721.766,3.859q0,.291.014.581c0,.068.006.137.008.2" transform="translate(-500.752 -218.15)" fill="#e32636"/>
          <path id="Path_215" data-name="Path 215" d="M504.877,206.97c-.025.771-.037,1.54-.031,2.2a34.3,34.3,0,0,0-.554,3.766,39.5,39.5,0,0,1,.584-5.968" transform="translate(-504.284 -174.386)" fill="#e32636"/>
          <path id="Path_216" data-name="Path 216" d="M456.349,98.737c-.23.728-.444,1.458-.61,2.091v0l-.021.028q-.3.395-.594.8t-.576.814q-.833,1.209-1.558,2.447-.242.412-.472.827a12.32,12.32,0,0,0-1.66.481,39.043,39.043,0,0,1,5.374-9.449l.072-.022c.276-.086.549-.162.791-.216-.239.653-.5,1.426-.745,2.2" transform="translate(-448.088 -81.339)" fill="#e32636"/>
          <path id="Path_217" data-name="Path 217" d="M170.168,154.159c.548,1.283,1.3,2.983,1.89,4.248q-.476.948-.978,1.915a16.269,16.269,0,0,0-5.884-5.511l.473-.631c1.35.014,3.15.01,4.5-.02" transform="translate(-118.079 -129.889)" fill="#e32636"/>
          <path id="Path_218" data-name="Path 218" d="M302.214,139.3q-1.02-.98-2.086-1.888a1.8,1.8,0,0,0,.131-.561q1.587-.277,3.186-.437c.08.507.162,1,.241,1.439-.494.474-.984.958-1.473,1.448" transform="translate(-270.952 -114.939)" fill="#e32636"/>
          <path id="Path_219" data-name="Path 219" d="M347.223,129.406q-1.349.343-2.679.77c-.042-.33-.082-.648-.116-.947.445-.414.9-.819,1.349-1.219q.77.511,1.524,1.055a1.717,1.717,0,0,0-.078.34" transform="translate(-321.539 -107.857)" fill="#e32636"/>
          <path id="Path_220" data-name="Path 220" d="M319.9,148.237c-1.518-.217-3.506-.5-5-.727-.141-.849-.3-1.863-.436-2.855q1.356-.441,2.731-.795a1.847,1.847,0,0,0,2.57.679q1.034.878,2.022,1.83-.684.7-1.36,1.42c-.177.145-.351.294-.524.448" transform="translate(-291.304 -121.212)" fill="#e32636"/>
          <path id="Path_221" data-name="Path 221" d="M307.043,112.2c.918.158,1.851.317,2.64.449.071.591.165,1.266.267,1.951-1.1.113-2.192.261-3.282.453a1.842,1.842,0,0,0-2.623-.519q-.648-.47-1.308-.915,1.081-.921,2.191-1.786c.638.112,1.372.239,2.115.367" transform="translate(-277.624 -94.229)" fill="#e32636"/>
          <path id="Path_222" data-name="Path 222" d="M208.836,125.463c1.385.131,3.233.288,4.621.388.362,1.253.876,2.914,1.29,4.151l-.473.631a16.177,16.177,0,0,0-8.5-1.965q.155-.272.314-.543c.917-.918,1.833-1.808,2.745-2.662" transform="translate(-167.157 -105.711)" fill="#e32636"/>
          <path id="Path_223" data-name="Path 223" d="M267.282,136.919c-.84-.108-1.673-.217-2.392-.313-.077-.441-.159-.932-.24-1.439a45.12,45.12,0,0,1,5.826-.216q-.544.9-1.042,1.812c-.482.062-.962.142-1.437.247l-.714-.091" transform="translate(-232.155 -113.69)" fill="#e32636"/>
          <path id="Path_224" data-name="Path 224" d="M314.153,159.8l.262.254a16.121,16.121,0,0,0-1.622,1.166q.675-.72,1.36-1.419" transform="translate(-283.674 -134.64)" fill="#e32636"/>
          <path id="Path_225" data-name="Path 225" d="M284.27,145.868l.713.091a16.1,16.1,0,0,0-4.1,1.512c-.159-.158-.32-.313-.482-.468.488-.49.979-.974,1.473-1.448.719.1,1.553.206,2.392.313" transform="translate(-249.142 -122.64)" fill="#e32636"/>
          <path id="Path_226" data-name="Path 226" d="M339.59,188.534l-1.546-.188c-.217-.759-.461-1.638-.7-2.527-.27-1-.534-2.008-.748-2.869v0q.923-1.164,1.888-2.288l.089-.1a45.123,45.123,0,0,1,5.307.235,16.093,16.093,0,0,0-3.614,7.823l-.674-.082" transform="translate(-316.884 -152.127)" fill="#e32636"/>
          <path id="Path_227" data-name="Path 227" d="M332.511,167.942q-.321.288-.631.6a46.245,46.245,0,0,0-5.266-.334q.445-.5.9-.987c1.5.221,3.482.51,5,.726" transform="translate(-303.945 -140.89)" fill="#e32636"/>
          <path id="Path_228" data-name="Path 228" d="M359.553,234.878q.246-.394.5-.79c.271-.423.551-.849.836-1.275q.288-.432.585-.867l.175-.256q.283-.411.571-.819t.58-.813l0,0,1.546.188.674.082a16.222,16.222,0,0,0-.182,1.673,47.381,47.381,0,0,0-4.345,5.385c-.336-.876-.664-1.745-.94-2.5l0,0" transform="translate(-341.641 -193.837)" fill="#e32636"/>
          <path id="Path_229" data-name="Path 229" d="M353.63,260.274c-.862-.106-1.881-.233-2.885-.361-.825-.105-1.64-.211-2.348-.3h0c-.2-.494-.413-1.039-.634-1.6a46.158,46.158,0,0,1,3.84-4.975,16.152,16.152,0,0,0,2.054,7.209l-.024.037" transform="translate(-328.417 -213.193)" fill="#e32636"/>
          <path id="Path_230" data-name="Path 230" d="M319.733,301.59c-.445-.952-.887-1.913-1.257-2.734l.024-.037a16.256,16.256,0,0,0,4.61,5.172q-.3.13-.6.254c-.562-.057-1.1-.114-1.6-.167-.358-.746-.768-1.614-1.177-2.489" transform="translate(-293.263 -251.775)" fill="#e32636"/>
          <path id="Path_231" data-name="Path 231" d="M323,332.228c.494.053,1.036.109,1.6.167q-1.14.473-2.3.879.337-.5.682-1.018Z" transform="translate(-295.357 -279.924)" fill="#e32636"/>
          <path id="Path_232" data-name="Path 232" d="M289.126,337.819c.175.332.354.67.533,1.006.437.823.875,1.639,1.257,2.341l-.02.027q-1.6,2.143-3.112,4.024c-1.632-.193-3.806-.464-5.434-.684-.777-1.373-1.8-3.212-2.551-4.6q.329-.5.67-1.017l.449-.678a45.676,45.676,0,0,0,5.012-1.913,16.06,16.06,0,0,0,3.2,1.492h0m-4.763,2.66a2.305,2.305,0,0,0,3.22,3.3,2.305,2.305,0,0,0-3.22-3.3" transform="translate(-254.98 -283.378)" fill="#e32636"/>
          <path id="Path_233" data-name="Path 233" d="M234.952,349.452c-.949-.037-2.065-.088-3.17-.144-.972-.049-1.935-.1-2.767-.156-.381-.7-.819-1.519-1.257-2.341-.179-.337-.358-.674-.533-1.006h0a16.246,16.246,0,0,0,10.051.11q.008.126.016.252l-.124.181q-1.11,1.611-2.216,3.1" transform="translate(-193.078 -291.363)" fill="#e32636"/>
          <path id="Path_234" data-name="Path 234" d="M170.412,360.59h0v0q-.209.322-.422.642c-.044.066-.087.133-.131.2q-.275.412-.556.82-.555.806-1.12,1.577t-1.138,1.506l-.452.022a45.6,45.6,0,0,0,3.219-5.814c.21.365.411.716.6,1.042l0,.006" transform="translate(-116.653 -302.938)" fill="#e32636"/>
          <path id="Path_235" data-name="Path 235" d="M177.7,337.61c1.08-.035,2.165-.076,3.09-.12l.011.019c.3.513.634,1.089.977,1.682l.334.578a44.509,44.509,0,0,1-3.91,7.064c-.391.014-.791.028-1.19.04-.767.023-1.531.04-2.234.05a46.12,46.12,0,0,0,.153-8.4,16.014,16.014,0,0,0,1.887-.886h0l.881-.028" transform="translate(-129.642 -284.358)" fill="#e32636"/>
          <path id="Path_236" data-name="Path 236" d="M226.7,351.39q1.1-1.492,2.216-3.1l.124-.181a45.006,45.006,0,0,1-.13,7.081c-.264-.448-.543-.924-.824-1.4-.486-.832-.974-1.674-1.386-2.391" transform="translate(-184.827 -293.301)" fill="#e32636"/>
          <path id="Path_237" data-name="Path 237" d="M168.594,304.581c-.925.042-2.011.084-3.09.12l-.881.028h0a16.279,16.279,0,0,0,6.313-6.3c.2.347.4.682.579.993-.914,1.74-1.889,3.464-2.921,5.157" transform="translate(-117.446 -251.449)" fill="#e32636"/>
          <path id="Path_238" data-name="Path 238" d="M135.824,192c.731-.074,1.7-.19,2.431-.3.4.731.948,1.7,1.367,2.421-.3.982-.633,1.978-1.008,2.981l-.007.019c-.751.106-1.727.227-2.529.312a16.123,16.123,0,0,0-1.188-3.627q.483-.917.933-1.81" transform="translate(-80.873 -161.518)" fill="#e32636"/>
          <path id="Path_239" data-name="Path 239" d="M465.284,281.6c.451,1.416,1.086,3.294,1.6,4.69a26.789,26.789,0,0,0,.129,4.431l0,.028h.008c.6,1.232,1.414,2.863,2.052,4.074q.147.958.379,1.868.174.682.4,1.335.074.217.153.432a2.213,2.213,0,0,0-.33.081,39.017,39.017,0,0,1-3.315-6.03c-.058-.189-.059-.19,0,0a39.11,39.11,0,0,1-1.811-5.032c-.07-.189-.155-.421-.251-.684q-.059-.334-.11-.669c-.045-.292-.085-.585-.122-.879-.008-.063-.016-.127-.024-.19-.013-.107-.024-.215-.035-.322-.009-.084-.018-.169-.027-.253s-.019-.2-.028-.3-.017-.191-.024-.286-.014-.185-.021-.277-.014-.213-.021-.319c-.005-.084-.01-.167-.015-.251-.007-.124-.012-.247-.017-.371,0-.068-.006-.136-.008-.2q-.01-.29-.014-.58v-.016c.266-.071.592-.138.907-.192.2-.033.388-.06.558-.08" transform="translate(-463.029 -237.266)" fill="#e32636"/>
          <path id="Path_240" data-name="Path 240" d="M280.579,67.822c1.2.25,2.64.543,3.756.767-.1,1.074-.174,2.511-.184,3.589q-1.125.763-2.241,1.587-1,.734-1.979,1.517c-.08.063-.16.124-.24.188-.789-.133-1.722-.291-2.64-.449-.744-.128-1.477-.255-2.115-.367,0-.592.016-1.278.04-1.969.028-.765.068-1.535.116-2.19a55.524,55.524,0,0,1,4.924-2.789Zm-4.928,4.936a1.216,1.216,0,0,0,2.344-.648,1.216,1.216,0,0,0-2.344.648" transform="translate(-247.633 -57.046)" fill="#e32636"/>
          <path id="Path_241" data-name="Path 241" d="M45.32,279.3a4.994,4.994,0,0,0-2.242-2.169c-.185-.326-.364-.64-.529-.927a55.612,55.612,0,0,0,1.678-5.563c1.017-.585,2.346-1.412,3.3-2.088.6.974,1.382,2.278,1.963,3.262a46.427,46.427,0,0,1-1.325,5.642c-.547.38-1.2.811-1.854,1.228-.336.212-.671.419-1,.616" transform="translate(23.794 -226.274)" fill="#e32636"/>
          <path id="Path_242" data-name="Path 242" d="M90.232,380.927c.274.632.551,1.289.77,1.842q-.516.827-1.071,1.633-.283.411-.573.811-.869,1.2-1.8,2.307c-.7.273-1.534.58-2.365.872-.8.279-1.593.545-2.281.763-.219-.529-.491-1.157-.76-1.764-.187-.423-.373-.836-.54-1.2q1.207-1.481,2.34-3.124c.093-.135.183-.272.275-.407q.714-.688,1.382-1.418c.359-.122.737-.253,1.12-.388a4.975,4.975,0,0,0,3.5.07" transform="translate(-23.864 -320.897)" fill="#e32636"/>
          <path id="Path_243" data-name="Path 243" d="M108.956,379.835q.275-.3.542-.612a4.984,4.984,0,0,0,.514.244c-.361.128-.717.252-1.056.367" transform="translate(-47.179 -319.521)" fill="#e32636"/>
          <path id="Path_244" data-name="Path 244" d="M120.419,357.177q-.3.34-.609.671c-.517-.985-1.108-2.092-1.585-2.966.194-.34.382-.682.57-1.025a4.962,4.962,0,0,0,1.624,3.321" transform="translate(-59.046 -298.147)" fill="#e32636"/>
          <path id="Path_245" data-name="Path 245" d="M85.051,318.082a4.948,4.948,0,0,0-1.749-.475c.431-.154.845-.307,1.221-.452.165.287.344.6.529.927" transform="translate(-18.18 -267.224)" fill="#e32636"/>
          <path id="Path_246" data-name="Path 246" d="M45.633,329.264a4.952,4.952,0,0,0-.57-2.312c.324-.2.659-.4,1-.616.657-.415,1.309-.845,1.854-1.228.423.849.97,1.989,1.357,2.855q-.243.684-.51,1.361t-.559,1.345q-.583,1.336-1.262,2.637c-1.12.781-2.651,1.772-3.831,2.46-.219-.546-.49-1.194-.761-1.82a4.977,4.977,0,0,0,3.288-4.681" transform="translate(24.051 -273.925)" fill="#e32636"/>
          <path id="Path_247" data-name="Path 247" d="M159.075,293.181c-.058.264-.12.527-.183.79-.327.041-.642.078-.938.111-.182-.311-.377-.646-.579-.993.175-.315.336-.636.488-.959l1.215,1.041Z" transform="translate(-103.868 -246.139)" fill="#e32636"/>
          <path id="Path_248" data-name="Path 248" d="M124.6,242.033c-.627,1.8-1.333,3.608-2.115,5.394-.936.154-2.06.321-3.152.469l.172-.694-1.949-2.023a16.226,16.226,0,0,0,1.039-7.126c1.135-.13,2.349-.282,3.336-.424.8,1.322,1.865,3.084,2.669,4.4" transform="translate(-63.122 -200.219)" fill="#e32636"/>
          <path id="Path_249" data-name="Path 249" d="M118.726,300.545c1.09-.146,2.211-.31,3.145-.467.728,1.218,1.686,2.828,2.425,4.08a4.967,4.967,0,0,0-2.04,4.016c0,.125.006.247.015.37-.188.343-.376.685-.57,1.025-1.62.314-3.788.687-5.422.92v0l0-.006c-.186-.326-.388-.677-.6-1.042a45.8,45.8,0,0,0,3.01-8.75Z" transform="translate(-62.522 -252.836)" fill="#e32636"/>
          <path id="Path_250" data-name="Path 250" d="M254,96.81c.087.707.205,1.554.332,2.37l-2.547,1.967a46.334,46.334,0,0,0-6.547.21c-.1-.685-.2-1.36-.267-1.951.079-.064.16-.125.24-.188q.984-.78,1.979-1.516,1.116-.823,2.241-1.587c1.369.218,3.2.5,4.568.695" transform="translate(-212.919 -80.983)" fill="#e32636"/>
          <path id="Path_251" data-name="Path 251" d="M302.174,41.677c1.158.284,2.7.661,3.861.942-.151.4-.313.857-.469,1.326l-.6.141a30.9,30.9,0,0,0-9.09,3.5c.127-.509.281-1.083.447-1.657.2-.676.409-1.353.6-1.924.13-.067.26-.133.39-.2l.267-.135.32-.157.329-.161.28-.132c.124-.058.247-.117.371-.175l.271-.123c.127-.058.255-.116.383-.173l.28-.122c.126-.055.251-.11.377-.164l.309-.129.35-.146.348-.139.316-.126c.132-.051.264-.1.4-.152l.256-.1h0" transform="translate(-272.631 -35.116)" fill="#e32636"/>
        </g>
      </g>
      <g id="Group_194" data-name="Group 194" transform="translate(500.213 88.234)">
        <g id="Group_193" data-name="Group 193" transform="translate(0 0)" clip-path="url(#clip-path-2)">
          <path id="Path_275" data-name="Path 275" d="M26.528,79.791c-6.705-.287-15.757-3.232-24.121-8.46C-.1,69.76-.944,68.254,1.317,65.642a122.946,122.946,0,0,0,7.44-9.8c1.58-2.244,2.841-2.176,4.91-.444,5.426,4.543,11.63,6.786,18.812,5.193,2.958-.656,5.94-1.7,5.891-5.286-.048-3.507-2.845-4.628-5.927-5.246-6.141-1.232-12.279-2.389-18.071-5.039C-.939,38.015-2.285,15.842,11.878,5.715,25.727-4.189,46.5.146,56.627,8.369c2.36,1.915,2.5,3.431.093,5.426-3.155,2.613-6.2,5.377-9.132,8.238-1.706,1.663-3.053,1.959-4.871.179-3.379-3.307-7.593-3.963-12.1-3.349-2.705.369-4.974,1.422-5.381,4.452-.4,2.966,1.914,3.877,4.073,4.748,4.747,1.916,9.855,2.31,14.8,3.349,18.641,3.917,20.862,26.546,12.631,36.3-7.05,8.353-15.116,12.1-30.211,12.08" transform="translate(0 0)" fill="#000"/>
        </g>
      </g>
    </g>
  </g>
</svg>
