<svg width="29" height="29" viewBox="0 0 29 29" fill="none" xmlns="http://www.w3.org/2000/svg">
<path d="M14.5 0C6.50444 0 0 6.50444 0 14.5C0 22.4956 6.50444 29 14.5 29C22.4956 29 29 22.4956 29 14.5C29 6.50444 22.4956 0 14.5 0ZM17.7709 19.6874C18.2434 20.1598 18.2434 20.9235 17.7709 21.3959C17.5353 21.6316 17.226 21.75 16.9166 21.75C16.6073 21.75 16.2979 21.6316 16.0623 21.3959L10.0207 15.3543C9.54825 14.8819 9.54825 14.1182 10.0207 13.6457L16.0624 7.60406C16.5348 7.13162 17.2985 7.13162 17.7709 7.60406C18.2434 8.0765 18.2434 8.84019 17.7709 9.31262L12.5836 14.5L17.7709 19.6874Z" fill="#F85046"/>
</svg>
