<svg width="61" height="61" viewBox="0 0 61 61" fill="none" xmlns="http://www.w3.org/2000/svg">
<path d="M22.3313 32.2871C18.8122 32.2871 15.9492 35.1501 15.9492 38.6692V54.6178C15.9492 58.1369 18.8122 60.9999 22.3313 60.9999C25.8505 61 28.7135 58.1371 28.7135 54.6179V38.6692C28.7135 35.1501 25.8505 32.2871 22.3313 32.2871Z" fill="#FF4340"/>
<path d="M12.3729 32.2871H6.19426C2.78731 32.2871 0.015625 35.0589 0.015625 38.4657C0.015625 41.8727 2.78743 44.6444 6.19426 44.6444C9.60108 44.6444 12.3729 41.8726 12.3729 38.4657V32.2871Z" fill="#FF4340"/>
<path d="M0 22.3308C0 25.85 2.86295 28.7129 6.38212 28.7129H22.3306C25.8499 28.7129 28.7129 25.85 28.7129 22.3308C28.7129 18.8116 25.8499 15.9487 22.3308 15.9487H6.38212C2.86295 15.9486 0 18.8116 0 22.3308Z" fill="#36C6FF"/>
<path d="M22.5341 12.3743H28.7127V6.19566C28.7127 2.78872 25.9409 0.0170288 22.5341 0.0170288C19.1272 0.0170288 16.3555 2.78884 16.3555 6.19566C16.3555 9.60249 19.1272 12.3743 22.5341 12.3743Z" fill="#36C6FF"/>
<path d="M38.6712 28.7129C42.1904 28.7129 45.0533 25.8499 45.0533 22.3308V6.38212C45.0534 2.86295 42.1904 0 38.6712 0C35.152 0 32.2891 2.86295 32.2891 6.38212V22.3306C32.2891 25.8499 35.152 28.7129 38.6712 28.7129Z" fill="#0DC46E"/>
<path d="M48.625 28.7129H54.8036C58.2106 28.7129 60.9823 25.9411 60.9823 22.5343C60.9823 19.1273 58.2105 16.3557 54.8036 16.3557C51.3968 16.3557 48.625 19.1275 48.625 22.5343V28.7129Z" fill="#0DC46E"/>
<path d="M61.002 38.6692C61.002 35.1501 58.139 32.2871 54.6198 32.2871H38.6712C35.152 32.2871 32.2891 35.1501 32.2891 38.6692C32.2891 42.1884 35.152 45.0514 38.6712 45.0514H54.6197C58.139 45.0515 61.002 42.1884 61.002 38.6692Z" fill="#FDCB02"/>
<path d="M38.4677 48.6257H32.2891V54.8043C32.2891 58.2113 35.0609 60.9829 38.4677 60.9829C41.8746 60.9829 44.6463 58.2111 44.6463 54.8043C44.6463 51.3975 41.8746 48.6257 38.4677 48.6257Z" fill="#FDCB02"/>
</svg>
