<svg width="72" height="71" viewBox="0 0 72 71" fill="none" xmlns="http://www.w3.org/2000/svg">
<path d="M30.367 68.6489L28.0047 70.069C27.597 70.3081 27.0626 70.1815 26.8095 69.7737L20.7773 59.6638C21.9866 59.8185 23.238 59.5935 24.377 58.9467C25.3331 58.3983 26.0924 57.625 26.5846 56.711C26.8798 58.9608 27.8501 62.5604 30.6763 67.4677C30.9154 67.8896 30.7748 68.4098 30.367 68.6489Z" fill="url(#paint0_linear_652_4205)"/>
<path d="M69.1104 21.2771C74.4677 35.7179 72.1617 49.8914 63.95 52.9286C55.7383 55.9658 44.7426 46.7417 39.3853 32.3151C34.028 17.8884 36.32 3.70079 44.5316 0.649542C52.7433 -2.40171 63.7391 6.83642 69.1104 21.2771Z" fill="url(#paint1_linear_652_4205)"/>
<path d="M64.7752 22.8801C69.1904 34.7758 68.0514 46.1653 62.2301 48.3307C56.4088 50.4961 48.1128 42.6078 43.6976 30.7122C39.2825 18.8165 40.4214 7.42702 46.2427 5.26161C52.064 3.0962 60.36 10.9845 64.7752 22.8801Z" fill="url(#paint2_linear_652_4205)"/>
<path d="M39.3672 32.3151C35.5145 21.938 35.627 11.7015 39.0438 5.62714C39.0016 5.68338 38.9735 5.73962 38.9313 5.79587C36.4706 9.40956 33.5178 12.7139 30.2697 15.6527C25.2218 20.2366 19.3161 23.6956 12.9465 26.1141C11.217 26.7609 9.71242 27.4921 8.40474 28.842C4.35516 32.9478 3.98957 39.5284 5.91593 44.731C7.8423 49.9336 12.4121 54.6862 18.1772 55.1643C20.0473 55.319 21.6643 54.8971 23.3938 54.2644C29.7916 51.9302 36.5269 50.6929 43.3465 50.8757C47.7195 50.9882 52.1066 51.5506 56.3389 52.6895C56.4092 52.7036 56.4655 52.7177 56.5358 52.7458C49.9833 50.3695 43.22 42.6921 39.3672 32.3151Z" fill="url(#paint3_linear_652_4205)"/>
<path d="M17.2773 40.5127C14.7041 33.5946 15.7024 26.5922 19.3583 23.2316C17.2913 24.3143 15.14 25.2705 12.9465 26.1001C11.217 26.7469 9.71242 27.4781 8.40474 28.8279C4.35516 32.9478 3.98957 39.5284 5.91593 44.731C7.8423 49.9336 12.4121 54.6862 18.1772 55.1643C20.0473 55.319 21.6643 54.8972 23.3938 54.2644C25.6014 53.4629 27.8512 52.788 30.1291 52.2537C25.1655 52.0849 19.8364 47.4307 17.2773 40.5127Z" fill="url(#paint4_linear_652_4205)"/>
<path d="M42.4749 24.7642C42.3062 24.8345 42.1375 24.9048 41.9688 24.9751C42.3906 26.8453 42.9671 28.7716 43.6842 30.698C44.4013 32.6384 45.2169 34.4664 46.1168 36.1537C46.2855 36.1115 46.4683 36.0553 46.637 35.985C49.7445 34.832 51.3194 31.387 50.1664 28.2795C49.0415 25.1861 45.5824 23.6112 42.4749 24.7642Z" fill="url(#paint5_linear_652_4205)"/>
<path d="M4.80595 39.1066L3.69512 39.5143C2.23277 40.0627 1.12195 41.1454 0.517321 42.4672C-0.0873049 43.7889 -0.185732 45.3356 0.348588 46.798C1.43129 49.7227 4.69346 51.2272 7.61816 50.1304L8.72899 49.7227C7.51974 48.2041 6.56358 46.5027 5.90271 44.731C5.26996 42.9593 4.87625 41.0329 4.80595 39.1066Z" fill="url(#paint6_linear_652_4205)"/>
<path d="M23.4091 54.2644C21.6796 54.8972 20.0626 55.319 18.1925 55.1643C16.4348 55.0097 14.7897 54.4753 13.2852 53.6317C14.5788 54.3488 15.6755 55.4034 16.4067 56.697L16.4489 56.7673C18.0378 59.5655 21.5953 60.5357 24.3934 58.9468C25.8558 58.1172 26.826 56.7392 27.1775 55.2206C27.515 53.7723 28.5977 52.6193 30.046 52.2678C27.7962 52.8021 25.5745 53.4629 23.4091 54.2644Z" fill="url(#paint7_linear_652_4205)"/>
<path d="M8.6988 43.6905C8.37539 42.8187 8.82535 41.8626 9.68307 41.5392L12.6781 40.4284C13.5499 40.1049 14.506 40.5549 14.8294 41.4126C15.1528 42.2844 14.7029 43.2406 13.8452 43.564L10.8501 44.6748C9.99242 44.9982 9.0222 44.5623 8.6988 43.6905Z" fill="url(#paint8_linear_652_4205)"/>
<path d="M7.56208 35.0711C7.23868 34.1993 7.68863 33.2431 8.54636 32.9197L11.5414 31.8089C12.4131 31.4855 13.3693 31.9355 13.6927 32.7932C14.0161 33.665 13.5662 34.6211 12.7084 34.9445L9.71342 36.0554C8.84164 36.3788 7.88548 35.9288 7.56208 35.0711Z" fill="url(#paint9_linear_652_4205)"/>
<path d="M13.4683 50.9742C13.1449 50.1024 13.5949 49.1462 14.4526 48.8228L17.4476 47.712C18.3194 47.3886 19.2756 47.8385 19.599 48.6963C19.9224 49.568 19.4724 50.5242 18.6147 50.8476L15.6197 51.9584C14.7479 52.2959 13.7917 51.8459 13.4683 50.9742Z" fill="url(#paint10_linear_652_4205)"/>
<defs>
<linearGradient id="paint0_linear_652_4205" x1="24.1121" y1="59.0585" x2="29.0423" y2="69.0627" gradientUnits="userSpaceOnUse">
<stop stop-color="#4D526E"/>
<stop offset="0.2727" stop-color="#434862"/>
<stop offset="0.7668" stop-color="#292D42"/>
<stop offset="1" stop-color="#1B1E30"/>
</linearGradient>
<linearGradient id="paint1_linear_652_4205" x1="42.8904" y1="2.87991" x2="67.9851" y2="55.7615" gradientUnits="userSpaceOnUse">
<stop stop-color="#4D526E"/>
<stop offset="0.2727" stop-color="#434862"/>
<stop offset="0.7668" stop-color="#292D42"/>
<stop offset="1" stop-color="#1B1E30"/>
</linearGradient>
<linearGradient id="paint2_linear_652_4205" x1="42.0343" y1="30.8999" x2="63.7902" y2="23.5762" gradientUnits="userSpaceOnUse">
<stop offset="1.33025e-06" stop-color="#FF941F"/>
<stop offset="0.2962" stop-color="#FFAD2D"/>
<stop offset="0.7497" stop-color="#FFCD3E"/>
<stop offset="1" stop-color="#FFD945"/>
</linearGradient>
<linearGradient id="paint3_linear_652_4205" x1="22.4655" y1="21.5692" x2="31.8357" y2="50.6486" gradientUnits="userSpaceOnUse">
<stop stop-color="#FFD945"/>
<stop offset="0.2503" stop-color="#FFCD3E"/>
<stop offset="0.7038" stop-color="#FFAD2D"/>
<stop offset="1" stop-color="#FF941F"/>
</linearGradient>
<linearGradient id="paint4_linear_652_4205" x1="10.0081" y1="27.8944" x2="21.7476" y2="55.143" gradientUnits="userSpaceOnUse">
<stop stop-color="#FF5C5C"/>
<stop offset="0.1773" stop-color="#FC5659"/>
<stop offset="0.4166" stop-color="#F3454F"/>
<stop offset="0.6911" stop-color="#E4293F"/>
<stop offset="0.9899" stop-color="#CF0129"/>
<stop offset="1" stop-color="#CE0028"/>
</linearGradient>
<linearGradient id="paint5_linear_652_4205" x1="42.7652" y1="25.1513" x2="49.4426" y2="33.624" gradientUnits="userSpaceOnUse">
<stop stop-color="#FF5C5C"/>
<stop offset="0.1773" stop-color="#FC5659"/>
<stop offset="0.4166" stop-color="#F3454F"/>
<stop offset="0.6911" stop-color="#E4293F"/>
<stop offset="0.9899" stop-color="#CF0129"/>
<stop offset="1" stop-color="#CE0028"/>
</linearGradient>
<linearGradient id="paint6_linear_652_4205" x1="1.4102" y1="40.2618" x2="6.19701" y2="51.3192" gradientUnits="userSpaceOnUse">
<stop stop-color="#4D526E"/>
<stop offset="0.2727" stop-color="#434862"/>
<stop offset="0.7668" stop-color="#292D42"/>
<stop offset="1" stop-color="#1B1E30"/>
</linearGradient>
<linearGradient id="paint7_linear_652_4205" x1="22.1815" y1="54.2753" x2="23.9526" y2="58.7748" gradientUnits="userSpaceOnUse">
<stop stop-color="#FFD945"/>
<stop offset="0.2503" stop-color="#FFCD3E"/>
<stop offset="0.7038" stop-color="#FFAD2D"/>
<stop offset="1" stop-color="#FF941F"/>
</linearGradient>
<linearGradient id="paint8_linear_652_4205" x1="11.181" y1="40.9818" x2="12.2581" y2="43.8538" gradientUnits="userSpaceOnUse">
<stop stop-color="#FFD945"/>
<stop offset="0.2503" stop-color="#FFCD3E"/>
<stop offset="0.7038" stop-color="#FFAD2D"/>
<stop offset="1" stop-color="#FF941F"/>
</linearGradient>
<linearGradient id="paint9_linear_652_4205" x1="10.1815" y1="32.5094" x2="11.1867" y2="35.7047" gradientUnits="userSpaceOnUse">
<stop stop-color="#FFD945"/>
<stop offset="0.2503" stop-color="#FFCD3E"/>
<stop offset="0.7038" stop-color="#FFAD2D"/>
<stop offset="1" stop-color="#FF941F"/>
</linearGradient>
<linearGradient id="paint10_linear_652_4205" x1="15.9314" y1="48.2553" x2="17.0802" y2="51.271" gradientUnits="userSpaceOnUse">
<stop stop-color="#FFD945"/>
<stop offset="0.2503" stop-color="#FFCD3E"/>
<stop offset="0.7038" stop-color="#FFAD2D"/>
<stop offset="1" stop-color="#FF941F"/>
</linearGradient>
</defs>
</svg>
