<svg width="69" height="69" viewBox="0 0 69 69" fill="none" xmlns="http://www.w3.org/2000/svg">
<mask id="mask0_652_4689" style="mask-type:luminance" maskUnits="userSpaceOnUse" x="0" y="0" width="69" height="69">
<path d="M0 0H69V69H0V0Z" fill="white"/>
</mask>
<g mask="url(#mask0_652_4689)">
<path d="M57.6506 45.2812H12.287C10.8212 45.2812 9.63281 44.093 9.63281 42.6272V12.6267C9.63281 11.1609 10.8212 9.97266 12.287 9.97266H57.6506C59.1165 9.97266 60.3047 11.1609 60.3047 12.6267V42.6272C60.3047 44.093 59.1165 45.2812 57.6506 45.2812Z" fill="#8C9EFF"/>
<path d="M57.6523 9.97266H53.6094C55.0752 9.97266 56.2634 11.1609 56.2634 12.6269V42.6272C56.2634 44.093 55.0752 45.2812 53.6094 45.2812H57.6523C59.1182 45.2812 60.3064 44.093 60.3064 42.6272V12.6269C60.3064 11.1609 59.1182 9.97266 57.6523 9.97266Z" fill="#7488ED"/>
<path d="M13.6758 14.0156H56.2617V41.2383H13.6758V14.0156Z" fill="#BDF9FF"/>
<path d="M21.0977 59.0273H2.74993C1.78784 59.0273 1.00781 58.2473 1.00781 57.2852V25.4609C1.00781 24.4988 1.78784 23.7188 2.74993 23.7188H21.0977C22.06 23.7188 22.8398 24.4988 22.8398 25.4609V57.2852C22.8398 58.2473 22.06 59.0273 21.0977 59.0273Z" fill="#FFCA28"/>
<path d="M21.0977 23.7188H17.0547C18.0169 23.7188 18.7968 24.4988 18.7968 25.4609V57.2852C18.7968 58.2473 18.0169 59.0273 17.0547 59.0273H21.0977C22.0599 59.0273 22.8398 58.2473 22.8398 57.2852V25.4609C22.8398 24.4988 22.0599 23.7188 21.0977 23.7188Z" fill="#FFB300"/>
<path d="M66.9102 56.4188H54.2422C53.6468 56.4188 53.1641 55.9361 53.1641 55.3407V32.161C53.1641 31.5656 53.6468 31.0829 54.2422 31.0829H66.9102C67.5056 31.0829 67.9883 31.5656 67.9883 32.161V55.3407C67.9883 55.9361 67.5056 56.4188 66.9102 56.4188Z" fill="#FF3D7A"/>
<path d="M66.9102 31.0829H62.8672C63.4626 31.0829 63.9453 31.5656 63.9453 32.161V55.3407C63.9453 55.9361 63.4626 56.4188 62.8672 56.4188H66.9102C67.5056 56.4188 67.9883 55.9361 67.9883 55.3407V32.161C67.9883 31.5656 67.5056 31.0829 66.9102 31.0829Z" fill="#EB3870"/>
<path d="M39.8906 51.2109H29.1094V45.2812H39.8906V51.2109Z" fill="#7488ED"/>
<path d="M35.8477 51.2109H39.8906V45.2812H35.8477V51.2109Z" fill="#6073D1"/>
<path d="M38.0039 26.2793H30.9961C30.6984 26.2793 30.457 26.0379 30.457 25.7402V18.7324C30.457 18.4347 30.6984 18.1934 30.9961 18.1934H38.0039C38.3016 18.1934 38.543 18.4347 38.543 18.7324V25.7402C38.543 26.0379 38.3016 26.2793 38.0039 26.2793Z" fill="#FFCA28"/>
<path d="M56.0273 9.97265H57.649C59.1139 9.97265 60.3026 11.1613 60.3026 12.6262V31.0823" stroke="black" stroke-miterlimit="10" stroke-linecap="round" stroke-linejoin="round"/>
<path d="M9.63281 23.7188V12.6262C9.63281 11.1613 10.8214 9.97265 12.2863 9.97265H51.7542" stroke="black" stroke-miterlimit="10" stroke-linecap="round" stroke-linejoin="round"/>
<path d="M53.1621 45.2812H22.8398" stroke="black" stroke-miterlimit="10" stroke-linecap="round" stroke-linejoin="round"/>
<path d="M53.1621 41.2383H22.8398" stroke="black" stroke-miterlimit="10" stroke-linecap="round" stroke-linejoin="round"/>
<path d="M13.6758 23.7188V14.0157H56.2617V31.0824" stroke="black" stroke-miterlimit="10" stroke-linecap="round" stroke-linejoin="round"/>
<path d="M38.0039 26.2793H30.9961C30.6984 26.2793 30.457 26.0379 30.457 25.7402V18.7324C30.457 18.4347 30.6984 18.1934 30.9961 18.1934H38.0039C38.3016 18.1934 38.543 18.4347 38.543 18.7324V25.7402C38.543 26.0379 38.3016 26.2793 38.0039 26.2793Z" stroke="black" stroke-miterlimit="10" stroke-linecap="round" stroke-linejoin="round"/>
<path d="M26.4141 30.6592H42.5859" stroke="black" stroke-miterlimit="10" stroke-linecap="round" stroke-linejoin="round"/>
<path d="M26.4141 34.9717H42.5859" stroke="black" stroke-miterlimit="10" stroke-linecap="round" stroke-linejoin="round"/>
<path d="M6.30078 37.8953H9.19797L11.3297 32.5368L12.6693 43.4614L14.8816 37.6948H17.628" stroke="black" stroke-miterlimit="10" stroke-linecap="round" stroke-linejoin="round"/>
<path d="M1.00781 50.1401V25.461C1.00781 24.4988 1.78784 23.7188 2.74993 23.7188H21.0977C22.0598 23.7188 22.8398 24.4988 22.8398 25.461V57.2852C22.8398 58.2475 22.0598 59.0273 21.0977 59.0273H2.74993C1.78784 59.0273 1.00781 58.2475 1.00781 57.2852V54.4651" stroke="black" stroke-miterlimit="10" stroke-linecap="round" stroke-linejoin="round"/>
<path d="M67.9883 50.115V55.3407C67.9883 55.9361 67.5056 56.4188 66.9102 56.4188H54.2422C53.6468 56.4188 53.1641 55.9361 53.1641 55.3407V32.161C53.1641 31.5656 53.6468 31.0829 54.2422 31.0829H66.9102C67.5056 31.0829 67.9883 31.5656 67.9883 32.161V45.9355" stroke="black" stroke-miterlimit="10" stroke-linecap="round" stroke-linejoin="round"/>
<path d="M39.8906 51.2109H29.1094V45.2812H39.8906V51.2109Z" stroke="black" stroke-miterlimit="10" stroke-linecap="round" stroke-linejoin="round"/>
<path d="M25.6055 51.2109H43.3945" stroke="black" stroke-miterlimit="10" stroke-linecap="round" stroke-linejoin="round"/>
<path d="M8.55469 54.8159H15.293" stroke="black" stroke-miterlimit="10" stroke-linecap="round" stroke-linejoin="round"/>
<path d="M59.1602 34.2305H61.8555" stroke="black" stroke-miterlimit="10" stroke-linecap="round" stroke-linejoin="round"/>
</g>
</svg>
