<svg width="43" height="33" viewBox="0 0 43 33" fill="none" xmlns="http://www.w3.org/2000/svg">
<path d="M35.4657 17.2463H41.2157C42.4711 17.2367 42.4711 15.3392 41.2157 15.3296H35.4657C34.2103 15.3392 34.2103 17.2367 35.4657 17.2463Z" fill="white"/>
<path d="M34.5073 9.57958C34.7565 9.57958 34.9961 9.48375 35.1878 9.30167L38.0628 6.42667C38.4365 6.05292 38.4365 5.44917 38.0628 5.07542C37.689 4.70167 37.0853 4.70167 36.7115 5.07542L33.8365 7.95042C33.2232 8.51583 33.6832 9.60833 34.5073 9.57958Z" fill="white"/>
<path d="M36.7019 27.51C37.5932 28.3916 38.9444 27.0404 38.0532 26.1587L35.1782 23.2837C34.8044 22.91 34.2007 22.91 33.8269 23.2837C33.4532 23.6575 33.4532 24.2612 33.8269 24.635L36.7019 27.51Z" fill="white"/>
<path d="M22.3175 29.0913C22.6529 29.4075 24.7229 31.8992 25.135 32.0717C26.9942 33.4038 29.7829 31.9279 29.7158 29.6279V2.94792C29.7829 0.628752 26.9462 -0.847082 25.0871 0.532919C23.6017 1.82667 21.9629 4.17459 20.3625 5.32459C17.3629 7.86417 13.5008 9.30167 9.59082 9.55083V23.025C10.9996 23.14 12.4083 23.3317 13.7596 23.7438C17.0371 24.6829 20.0271 26.5708 22.3175 29.0913Z" fill="white"/>
<path d="M0.0936783 19.0671C0.486595 21.2904 2.52785 23.0154 4.7991 22.9963H7.6741V9.57959H4.7991C2.1541 9.57959 0.00742835 11.7263 0.00742835 14.3713C0.0361783 15.0421 -0.0692384 18.4825 0.0936783 19.0671Z" fill="white"/>
<path d="M4.79899 24.9129C4.12816 24.9129 3.48607 24.8075 2.88232 24.635V29.7046C2.97816 33.49 8.53649 33.4996 8.63232 29.7046V24.9129C7.99982 24.9129 5.47941 24.9129 4.79899 24.9129Z" fill="white"/>
</svg>
