<svg width="69" height="63" viewBox="0 0 69 63" fill="none" xmlns="http://www.w3.org/2000/svg">
<path d="M13.1739 19.3639C13.3366 20.3444 13.7147 20.9644 14.0885 21.3558C14.9767 27.2743 19.9235 32.7664 24.4481 32.7664C29.7203 32.7664 34.522 26.8214 35.4454 21.369C35.828 20.982 36.2105 20.3576 36.3776 19.3639C36.6766 18.2558 37.0636 16.3298 36.3864 15.424C36.3512 15.38 36.3116 15.3317 36.2765 15.2965C36.9141 12.9704 37.7187 8.15994 34.8386 4.88406C34.5836 4.55867 32.9654 2.62833 29.5137 1.60819L27.8647 1.04096C25.1473 0.201104 23.4412 0.0120265 23.3665 0.00323221C23.2433 -0.00556208 23.1158 0.00323207 22.9971 0.0340121C22.9048 0.060395 22.5794 0.148338 22.3287 0.113161C21.6779 0.0208207 20.7018 0.355004 20.5303 0.420961C20.306 0.513301 15.0427 2.61953 13.4465 7.52235C13.297 7.91809 12.6594 10.0023 13.5081 15.1118C13.3805 15.1998 13.2662 15.3053 13.1695 15.4328C12.4835 16.3298 12.8705 18.2558 13.1739 19.3639Z" fill="#FFC344"/>
<path d="M34.2274 56.6692C33.2556 56.124 32.2003 55.6007 31.0746 55.1038C30.5294 54.862 29.9753 54.6333 29.4257 54.4179C28.9948 54.2552 28.4847 54.0441 28.1285 53.9518L22.9135 52.5447L32.6708 32.6784L36.8525 35.3167C37.7363 35.8707 38.3871 36.3412 39.0994 36.8645L39.2489 36.9744C39.9569 37.4977 40.6516 38.0341 41.3332 38.5882C42.815 39.7842 44.1254 40.9538 45.3434 42.163C45.4357 42.2554 45.5236 42.3389 45.616 42.4313C46.0249 41.9784 46.4251 41.5738 46.8252 41.1385C46.3151 39.6215 45.6951 38.2188 44.9388 37.0931C44.9388 37.0931 43.8659 35.6289 41.32 34.6527C41.32 34.6527 41.1045 34.5868 40.7747 34.4768C38.5102 33.4171 36.36 32.7356 36.36 32.7356C35.8983 32.5685 35.4938 32.4058 35.1288 32.2475C33.5898 31.4868 32.3102 30.6293 32.0464 29.8203C32.0464 29.8203 32.9346 38.4167 25.4199 38.6189L24.3734 38.5706C17.5622 37.9638 17.1093 29.8027 17.1093 29.8027C16.397 32.0408 7.83132 34.6439 7.83132 34.6439C5.28537 35.6201 4.20807 37.0887 4.20807 37.0887C0.444112 42.6731 0 55.0994 0 55.0994C0.0483686 57.94 1.27517 58.2346 1.27517 58.2346C9.93315 62.0997 23.5159 62.7813 23.5159 62.7813C24.2503 62.7988 24.9318 62.7593 25.6134 62.7197L25.631 62.7901C25.631 62.7901 32.2619 62.4515 39.2137 60.9301L38.3651 59.8176C37.6747 58.9074 36.1313 57.7333 34.2274 56.6692Z" fill="#FFC344"/>
<path d="M31.7559 30.1852C31.8482 30.0665 31.9493 29.9478 32.0461 29.8159C32.0241 29.7367 32.0197 29.6971 32.0197 29.6971C31.9361 29.8686 31.8394 30.0137 31.7559 30.1852Z" fill="#030104"/>
<path d="M17.1489 29.7895L17.127 29.6971L17.1094 29.7939C17.1138 29.7763 17.1314 29.7587 17.1358 29.7411C17.1358 29.7411 17.1446 29.7631 17.1489 29.7895Z" fill="#030104"/>
<path d="M61.0408 33.7777C58.574 35.519 56.2743 37.4889 54.0846 39.5599C51.8904 41.6442 49.8105 43.8384 47.8098 46.1029C47.0667 46.9472 46.3456 47.8002 45.6289 48.6576C45.6201 48.6445 45.6113 48.6313 45.6069 48.6181C44.5516 47.211 43.4083 45.9578 42.2211 44.7838C41.0338 43.6141 39.8026 42.5324 38.5363 41.5035C37.8987 40.9934 37.2567 40.4921 36.6015 39.9997C35.92 39.5072 35.3219 39.0631 34.4865 38.5354L29.2891 49.1105C29.764 49.2381 30.4543 49.5063 31.0391 49.7349C31.6591 49.9724 32.2659 50.2274 32.8727 50.4956C34.0863 51.0321 35.2692 51.6169 36.3992 52.2457C38.633 53.4945 40.7128 55.0159 41.9001 56.5681L45.8971 61.8095L48.1968 56.8231C49.3532 54.3256 50.7383 51.7137 52.1586 49.2249C53.5921 46.7185 55.1223 44.2605 56.78 41.8904C58.4377 39.5204 60.2142 37.2295 62.2017 35.1188C64.1892 33.0214 66.3834 31.0691 68.9997 29.684C66.1591 30.5282 63.5032 32.054 61.0408 33.7777Z" fill="#FF4500"/>
</svg>
