<svg width="36" height="37" viewBox="0 0 36 37" fill="none" xmlns="http://www.w3.org/2000/svg">
<path d="M7.49426 15.5057L3.96765 24.9124V24.9131C4.83064 28.3608 6.72748 31.4085 9.41264 33.7074L13.8374 32.0482C9.13759 27.8387 6.81787 21.6471 7.49426 15.5057Z" fill="black"/>
<path d="M2.77369 28.0965L0.0705808 35.3041C-0.2525 36.165 0.589664 37.0164 1.45696 36.6905L7.15969 34.5524C5.24691 32.6959 3.76311 30.4835 2.77369 28.0965Z" fill="black"/>
<path d="M15.0544 14.6284L11.0346 10.6086C7.77532 17.9606 10.0035 26.3639 16.1529 31.1802L20.4434 29.5712C16.6753 25.6799 14.6372 20.2484 15.0544 14.6284Z" fill="black"/>
<path d="M17.1572 16.7314C17.3224 21.3012 19.3125 25.6197 22.6798 28.732H22.6805L25.8251 27.5531C26.5596 27.2774 26.7606 26.3348 26.2085 25.7827L17.1572 16.7314Z" fill="black"/>
<path d="M25.0231 20.1147C25.4437 20.5352 26.1255 20.5352 26.5461 20.1147C30.5977 16.0631 34.5428 17.3157 34.5822 17.3288C35.1464 17.5168 35.7563 17.2119 35.9445 16.6476C36.1326 16.0835 35.8276 15.4735 35.2633 15.2854C35.051 15.2147 30.0056 13.6092 25.0232 18.5917C24.6025 19.0122 24.6024 19.6942 25.0231 20.1147Z" fill="black"/>
<path d="M18.1696 11.7379C23.1522 6.75604 21.5461 1.71023 21.4758 1.49771C21.2877 0.933398 20.6774 0.628984 20.1131 0.817089C19.5495 1.00519 19.2444 1.61474 19.4325 2.17905C19.4454 2.21854 20.6982 6.16372 16.6461 10.2152C16.2282 10.6331 16.2239 11.3145 16.6461 11.7379C17.0689 12.1607 17.7502 12.1574 18.1696 11.7379Z" fill="black"/>
<path d="M20.454 14.0227C20.0334 14.4433 20.0334 15.1251 20.454 15.5457C20.8707 15.9625 21.5478 15.9679 21.9706 15.5521C22.5269 15.2749 24.2538 16.3146 25.2135 15.3553C26.1628 14.4059 25.1542 12.7141 25.4061 12.1212C25.9998 11.8687 27.6909 12.8778 28.6402 11.9285C29.5898 10.9791 28.581 9.28739 28.833 8.69443C29.4275 8.44178 31.1177 9.45109 32.067 8.50173C33.0166 7.5523 32.0079 5.86058 32.2598 5.26762C32.8508 5.01626 34.5452 6.02327 35.494 5.07485C36.4532 4.11544 35.4154 2.38552 35.6906 1.83205C36.1049 1.41104 36.1027 0.733932 35.6842 0.315435C35.2637 -0.105145 34.5818 -0.105145 34.1612 0.315435C33.3124 1.16428 33.4784 2.36262 33.6383 3.21936C32.7816 3.05947 31.5833 2.8934 30.7345 3.74217C29.8856 4.59102 30.0517 5.78936 30.2116 6.6461C29.3549 6.48628 28.1564 6.32007 27.3077 7.16898C26.4588 8.01783 26.625 9.21617 26.7849 10.0729C25.928 9.91302 24.7297 9.74688 23.8809 10.5957C23.0321 11.4446 23.1982 12.6429 23.358 13.4996C22.5012 13.3399 21.3028 13.1738 20.454 14.0227Z" fill="black"/>
<path d="M26.5461 4.88449C26.9667 4.46391 26.9667 3.78207 26.5461 3.36149C26.1255 2.94091 25.4437 2.94091 25.0231 3.36149C24.6025 3.78207 24.6025 4.46391 25.0231 4.88449C25.4437 5.30507 26.1255 5.30507 26.5461 4.88449Z" fill="black"/>
<path d="M33.3996 12.815C33.9943 12.815 34.4765 12.3329 34.4765 11.7381C34.4765 11.1433 33.9943 10.6612 33.3996 10.6612C32.8048 10.6612 32.3226 11.1433 32.3226 11.7381C32.3226 12.3329 32.8048 12.815 33.3996 12.815Z" fill="black"/>
<path d="M31.1151 21.6378C30.6945 22.0584 30.6945 22.7402 31.1151 23.1608C31.5357 23.5814 32.2175 23.5814 32.6381 23.1608C33.0587 22.7402 33.0587 22.0584 32.6381 21.6378C32.2176 21.2172 31.5357 21.2172 31.1151 21.6378Z" fill="black"/>
<path d="M15.8849 6.40751C16.3055 5.98694 16.3055 5.30509 15.8849 4.88451C15.4644 4.46393 14.7825 4.46393 14.3619 4.88451C13.9414 5.30502 13.9414 5.98694 14.3619 6.40751C14.7825 6.82809 15.4644 6.82809 15.8849 6.40751Z" fill="black"/>
</svg>
