<svg width="30" height="30" viewBox="0 0 30 30" fill="none" xmlns="http://www.w3.org/2000/svg">
<path d="M25.6066 4.39344C22.7735 1.5603 19.0066 0 14.9999 0C10.9933 0 7.22651 1.5603 4.39338 4.39344C1.56024 7.22657 0 10.9934 0 15.0001C0 19.0067 1.56024 22.7735 4.39338 25.6067C7.22651 28.4398 10.9933 30.0001 14.9999 30.0001C19.0065 30.0001 22.7734 28.4398 25.6066 25.6067C28.4398 22.7735 30 19.0067 30 15.0001C30 10.9934 28.4398 7.22657 25.6066 4.39344ZM14.9999 28.2423C7.69819 28.2423 1.75782 22.3019 1.75782 15.0001C1.75782 7.69825 7.69819 1.75782 14.9999 1.75782C22.3017 1.75782 28.2422 7.69825 28.2422 15.0001C28.2422 22.3019 22.3017 28.2423 14.9999 28.2423Z" fill="black"/>
<path d="M9.35152 8.47266C7.30964 8.47266 5.64844 10.1339 5.64844 12.1759C5.64844 12.6612 6.04195 13.0548 6.52735 13.0548C7.01274 13.0548 7.40626 12.6612 7.40626 12.1759C7.40626 11.1032 8.2789 10.2305 9.35152 10.2305C10.4241 10.2305 11.2968 11.1032 11.2968 12.1759C11.2968 12.6612 11.6903 13.0548 12.1757 13.0548C12.6611 13.0548 13.0546 12.6612 13.0546 12.1759C13.0546 10.1339 11.3934 8.47266 9.35152 8.47266Z" fill="black"/>
<path d="M20.6484 8.47269C18.6065 8.47269 16.9453 10.1339 16.9453 12.1759C16.9453 12.6613 17.3388 13.0548 17.8242 13.0548C18.3096 13.0548 18.7031 12.6613 18.7031 12.1759C18.7031 11.1032 19.5758 10.2305 20.6484 10.2305C21.721 10.2305 22.5937 11.1032 22.5937 12.1759C22.5937 12.6613 22.9872 13.0548 23.4726 13.0548C23.958 13.0548 24.3515 12.6613 24.3515 12.1759C24.3515 10.1339 22.6903 8.47269 20.6484 8.47269Z" fill="black"/>
<path d="M23.2922 16.9956C22.8347 16.8339 22.3325 17.0737 22.1707 17.5314C21.1004 20.5594 18.2226 22.5938 15.0096 22.5938C11.7965 22.5938 8.91866 20.5594 7.84844 17.5314C7.68672 17.0737 7.18445 16.8339 6.72689 16.9956C6.26922 17.1573 6.02933 17.6595 6.19111 18.1171C7.50912 21.8462 11.053 24.3517 15.0096 24.3517C18.9661 24.3517 22.5099 21.8462 23.828 18.1171C23.9898 17.6595 23.75 17.1573 23.2922 16.9956Z" fill="black"/>
</svg>
