<svg width="35" height="39" viewBox="0 0 35 39" fill="none" xmlns="http://www.w3.org/2000/svg">
<path d="M21.5877 8.7444C24.0024 8.7444 25.9599 6.7869 25.9599 4.3722C25.9599 1.9575 24.0024 0 21.5877 0C19.173 0 17.2155 1.9575 17.2155 4.3722C17.2155 6.7869 19.173 8.7444 21.5877 8.7444Z" fill="#010002"/>
<path d="M32.5014 15.037C28.5943 14.6351 24.8062 10.4072 23.8529 9.82166C23.2679 9.39939 22.5762 9.12286 21.9145 9.01966C21.9145 9.01966 21.4442 8.92205 20.9581 8.9757C20.4929 9.02738 19.7855 9.05141 18.7497 9.82348C18.6747 9.87012 18.1456 10.3308 17.9788 10.5315C16.6896 11.8677 13.1175 15.8192 11.3394 20.2893C11.088 20.9243 11.2475 21.614 11.6852 22.0792L9.59701 25.8001L6.65535 24.1476C6.30421 23.95 5.85854 24.0734 5.66127 24.425L0.0934639 34.2633C-0.10365 34.6145 0.0210627 35.0622 0.373063 35.2577L2.60001 36.5101C2.24549 37.1411 2.33081 37.9574 2.86637 38.5001C3.51216 39.1593 4.57312 39.1673 5.23119 38.5196C5.84286 37.9162 5.89281 36.9582 5.3745 36.2976L8.41472 30.9637L10.5446 27.1684L13.1846 22.5918C13.7555 22.501 14.2671 22.1205 14.497 21.5433C15.2495 19.6485 16.4149 17.8229 17.5403 16.3101L18.0706 22.4051C18.1321 23.1211 18.4303 23.7217 18.8725 24.1959C17.5051 26.6755 13.8253 33.456 12.4968 35.7597C11.9017 36.7936 12.2554 38.1145 13.2887 38.7105C13.6766 38.9328 14.1059 39.0244 14.5216 38.9944C15.2131 38.9444 15.8674 38.5623 16.2392 37.9174C17.4769 35.7717 20.7052 29.2595 22.1212 26.8117C23.2563 28.6981 25.1904 32.1696 27.6441 37.7132C28.0009 38.5211 28.7914 38.9998 29.6213 38.9998C29.9147 38.9998 30.2105 38.9408 30.4954 38.8144C31.5857 38.332 32.0791 37.0565 31.5955 35.9663C28.7019 29.4243 26.5714 25.7926 25.391 23.88C25.8576 23.2944 26.1386 22.5663 26.0651 21.712L25.5631 15.9389C27.0172 17.0999 28.9146 18.078 32.1543 18.413C32.2145 18.4194 32.2728 18.4224 32.3317 18.4224C33.1898 18.4224 33.9276 17.773 34.0177 16.9002C34.1121 15.9669 33.4345 15.133 32.5014 15.037ZM4.0244 37.9905C3.688 37.9905 3.41517 37.7178 3.41517 37.3816C3.41517 37.0455 3.688 36.7727 4.0244 36.7727C4.36041 36.7727 4.63331 37.0454 4.63331 37.3816C4.63315 37.718 4.36049 37.9905 4.0244 37.9905Z" fill="#010002"/>
</svg>
