<svg width="24" height="21" viewBox="0 0 24 21" fill="none" xmlns="http://www.w3.org/2000/svg">
<path d="M3.47154 21H1.7816L2.9766 19.805C3.62092 19.1607 4.02328 18.3226 4.13146 17.4135C2.4501 16.3101 1.22062 14.8585 0.562484 13.1937C-0.095189 11.5302 -0.177836 9.69892 0.323504 7.89787C0.925038 5.73678 2.33591 3.76703 4.29614 2.35139C6.42629 0.81312 9.07808 0 11.9649 0C15.6015 0 18.6667 1.04482 20.8291 3.02143C22.7772 4.80219 23.85 7.20417 23.85 9.78497C23.85 11.0388 23.5947 12.2588 23.0912 13.4111C22.5702 14.6035 21.8073 15.6652 20.8236 16.5667C18.6583 18.5511 15.5949 19.6 11.9648 19.6C10.6172 19.6 9.21103 19.4201 7.95556 19.09C6.76719 20.3091 5.15686 21 3.47154 21ZM11.9649 1.4C6.17639 1.4 2.62454 4.85207 1.67222 8.2733C0.772298 11.5064 2.09889 14.5613 5.22089 16.4453L5.56972 16.6558L5.55899 17.0631C5.53771 17.8692 5.34554 18.6457 5.00156 19.3475C5.83918 19.0641 6.59924 18.5503 7.19442 17.8472L7.49038 17.4975L7.92928 17.6288C9.16096 17.9971 10.5941 18.2 11.9649 18.2C19.1689 18.2 22.45 13.8379 22.45 9.78497C22.45 7.60209 21.5389 5.56705 19.8845 4.05477C17.9846 2.31803 15.246 1.4 11.9649 1.4Z" fill="#1B1B1B"/>
</svg>
