<svg width="20" height="20" viewBox="0 0 20 20" fill="none" xmlns="http://www.w3.org/2000/svg">
<path d="M5.66516 1.80673L4.26273 0.372656C1.90901 2.20787 0.359469 5.0359 0.222168 8.24502H2.18361C2.33072 5.58747 3.6645 3.26086 5.66516 1.80673ZM17.8163 8.24502H19.7777C19.6306 5.0359 18.0811 2.20787 15.7372 0.372656L14.3445 1.80673C16.3256 3.26086 17.6692 5.58747 17.8163 8.24502ZM15.8843 8.74645C15.8843 5.6677 14.2759 3.09038 11.471 2.40844V1.7265C11.471 0.894138 10.8139 0.222229 9.99995 0.222229C9.18595 0.222229 8.52887 0.894138 8.52887 1.7265V2.40844C5.7142 3.09038 4.11563 5.65767 4.11563 8.74645V13.7607L2.15419 15.7664V16.7692H17.8457V15.7664L15.8843 13.7607V8.74645ZM9.99995 19.7778C10.1372 19.7778 10.2647 19.7678 10.3922 19.7377C11.0297 19.5973 11.5495 19.156 11.8045 18.5543C11.9025 18.3136 11.9516 18.0529 11.9516 17.7721H8.0287C8.03851 18.8752 8.91135 19.7778 9.99995 19.7778Z" fill="#1B1B1B"/>
</svg>
