<svg width="27" height="25" viewBox="0 0 27 25" fill="none" xmlns="http://www.w3.org/2000/svg">
<path d="M22.6017 23.5077L2.11994 21.2377C1.13518 21.1286 0.425396 20.2418 0.534508 19.2571L2.41704 2.27137C2.52621 1.28662 3.41297 0.576781 4.39768 0.685945L24.8794 2.95596C25.8642 3.06512 26.574 3.95189 26.4648 4.93659L24.5823 21.9223C24.4732 22.9071 23.5864 23.6169 22.6017 23.5077Z" fill="url(#paint0_linear_669_5938)"/>
<path d="M26.4662 4.93664L25.724 11.6355L24.0742 2.86664L24.8811 2.956C25.8655 3.06496 26.5752 3.95161 26.4662 4.93664Z" fill="url(#paint1_linear_669_5938)"/>
<path d="M25.5374 20.3525L5.2855 24.1623C4.31181 24.3455 3.37396 23.7046 3.19078 22.7309L0.0312496 5.93583C-0.151927 4.96214 0.488926 4.02429 1.46262 3.84111L21.7145 0.0312496C22.6882 -0.151927 23.6261 0.488926 23.8093 1.46262L26.9688 18.2577C27.152 19.2315 26.5111 20.1693 25.5374 20.3525Z" fill="url(#paint2_linear_669_5938)"/>
<path d="M24.2422 3.76099V20.5962L25.538 20.3524C26.5117 20.1693 27.1525 19.2314 26.9693 18.2577L24.2422 3.76099Z" fill="url(#paint3_linear_669_5938)"/>
<path d="M3.09375 22.2185L3.19016 22.731C3.37333 23.7047 4.31119 24.3455 5.28488 24.1623L15.6177 22.2185H3.09375Z" fill="url(#paint4_linear_669_5938)"/>
<path d="M22.4479 22.3232H1.84084C0.850046 22.3232 0.046875 21.5201 0.046875 20.5293V3.43953C0.046875 2.44874 0.850046 1.64557 1.84084 1.64557H22.4479C23.4387 1.64557 24.2419 2.44874 24.2419 3.43953V20.5293C24.2419 21.5201 23.4387 22.3232 22.4479 22.3232Z" fill="url(#paint5_linear_669_5938)"/>
<path d="M20.7683 20.6376H3.521C2.69178 20.6376 2.01953 19.9654 2.01953 19.1361V4.83276C2.01953 4.00355 2.69178 3.3313 3.521 3.3313H20.7683C21.5975 3.3313 22.2697 4.00355 22.2697 4.83276V19.1361C22.2697 19.9654 21.5975 20.6376 20.7683 20.6376Z" fill="url(#paint6_linear_669_5938)"/>
<path d="M13.3456 20.6376H3.52147C2.6921 20.6376 2.01953 19.9655 2.01953 19.1362V16.7914L4.51211 13.7617C5.33471 12.761 6.86587 12.761 7.68905 13.7617L9.24102 15.6486L13.3456 20.6376Z" fill="url(#paint7_linear_669_5938)"/>
<path d="M22.2705 15.3659V19.1362C22.2705 19.9656 21.5979 20.6376 20.7686 20.6376H5.13672L9.24135 15.6486L14.2838 9.51886C15.1064 8.5187 16.6381 8.5187 17.4607 9.51886L22.2705 15.3659Z" fill="url(#paint8_linear_669_5938)"/>
<path d="M7.26596 9.08642C8.44191 9.08642 9.3952 8.13313 9.3952 6.95718C9.3952 5.78124 8.44191 4.82794 7.26596 4.82794C6.09001 4.82794 5.13672 5.78124 5.13672 6.95718C5.13672 8.13313 6.09001 9.08642 7.26596 9.08642Z" fill="url(#paint9_linear_669_5938)"/>
<defs>
<linearGradient id="paint0_linear_669_5938" x1="6.89861" y1="3.84711" x2="22.1258" y2="22.8639" gradientUnits="userSpaceOnUse">
<stop stop-color="#FFA936"/>
<stop offset="0.4112" stop-color="#FF8548"/>
<stop offset="0.7781" stop-color="#FF6C54"/>
<stop offset="1" stop-color="#FF6359"/>
</linearGradient>
<linearGradient id="paint1_linear_669_5938" x1="25.968" y1="7.01527" x2="24.6944" y2="7.29623" gradientUnits="userSpaceOnUse">
<stop stop-color="#F82814" stop-opacity="0"/>
<stop offset="1" stop-color="#C0272D"/>
</linearGradient>
<linearGradient id="paint2_linear_669_5938" x1="4.77714" y1="6.13684" x2="24.8964" y2="19.8827" gradientUnits="userSpaceOnUse">
<stop stop-color="#CDEC7A"/>
<stop offset="0.2157" stop-color="#B0E995"/>
<stop offset="0.5613" stop-color="#87E4BB"/>
<stop offset="0.8347" stop-color="#6EE1D2"/>
<stop offset="1" stop-color="#65E0DB"/>
</linearGradient>
<linearGradient id="paint3_linear_669_5938" x1="26.0309" y1="12.1786" x2="23.8579" y2="12.1786" gradientUnits="userSpaceOnUse">
<stop stop-color="#CDEC7A" stop-opacity="0"/>
<stop offset="0.2354" stop-color="#9AD57D" stop-opacity="0.235"/>
<stop offset="0.6035" stop-color="#51B482" stop-opacity="0.604"/>
<stop offset="0.8679" stop-color="#239F85" stop-opacity="0.868"/>
<stop offset="1" stop-color="#119786"/>
</linearGradient>
<linearGradient id="paint4_linear_669_5938" x1="9.35569" y1="23.316" x2="9.35569" y2="22.0287" gradientUnits="userSpaceOnUse">
<stop stop-color="#CDEC7A" stop-opacity="0"/>
<stop offset="0.2354" stop-color="#9AD57D" stop-opacity="0.235"/>
<stop offset="0.6035" stop-color="#51B482" stop-opacity="0.604"/>
<stop offset="0.8679" stop-color="#239F85" stop-opacity="0.868"/>
<stop offset="1" stop-color="#119786"/>
</linearGradient>
<linearGradient id="paint5_linear_669_5938" x1="4.67314" y1="4.51313" x2="21.8985" y2="21.7385" gradientUnits="userSpaceOnUse">
<stop stop-color="#F8F6FB"/>
<stop offset="1" stop-color="#EFDCFB"/>
</linearGradient>
<linearGradient id="paint6_linear_669_5938" x1="5.97064" y1="3.95209" x2="22.7712" y2="25.8097" gradientUnits="userSpaceOnUse">
<stop stop-color="#18CEFB"/>
<stop offset="0.2969" stop-color="#2BB9F9"/>
<stop offset="0.7345" stop-color="#42A0F7"/>
<stop offset="1" stop-color="#4A97F6"/>
</linearGradient>
<linearGradient id="paint7_linear_669_5938" x1="4.0025" y1="15.3543" x2="11.3628" y2="24.93" gradientUnits="userSpaceOnUse">
<stop stop-color="#CDEC7A"/>
<stop offset="0.2154" stop-color="#B0E995" stop-opacity="0.784"/>
<stop offset="0.5604" stop-color="#87E4BB" stop-opacity="0.439"/>
<stop offset="0.8334" stop-color="#6EE1D2" stop-opacity="0.165"/>
<stop offset="0.9985" stop-color="#65E0DB" stop-opacity="0"/>
</linearGradient>
<linearGradient id="paint8_linear_669_5938" x1="10.527" y1="13.8689" x2="19.404" y2="25.4179" gradientUnits="userSpaceOnUse">
<stop stop-color="#CDEC7A"/>
<stop offset="0.2157" stop-color="#B0E995"/>
<stop offset="0.5613" stop-color="#87E4BB"/>
<stop offset="0.8347" stop-color="#6EE1D2"/>
<stop offset="1" stop-color="#65E0DB"/>
</linearGradient>
<linearGradient id="paint9_linear_669_5938" x1="6.20804" y1="5.58087" x2="9.08677" y2="9.32614" gradientUnits="userSpaceOnUse">
<stop stop-color="#FFD945"/>
<stop offset="0.3043" stop-color="#FFCD3E"/>
<stop offset="0.8558" stop-color="#FFAD2B"/>
<stop offset="1" stop-color="#FFA325"/>
</linearGradient>
</defs>
</svg>
