<svg width="54" height="61" viewBox="0 0 54 61" fill="none" xmlns="http://www.w3.org/2000/svg">
<path d="M11.1568 12.718C11.1568 10.2026 11.9027 7.7437 13.3002 5.65224C14.6976 3.56078 16.6839 1.93069 19.0078 0.968102C21.3317 0.00551045 23.8889 -0.246347 26.3559 0.244378C28.823 0.735102 31.0891 1.94637 32.8677 3.72501C34.6464 5.50364 35.8576 7.76976 36.3483 10.2368C36.8391 12.7038 36.5872 15.261 35.6246 17.5849C34.662 19.9088 33.0319 21.8951 30.9405 23.2925C28.849 24.69 26.3901 25.4359 23.8748 25.4359C20.5018 25.4359 17.2669 24.096 14.8818 21.7109C12.4967 19.3258 11.1568 16.091 11.1568 12.718ZM43.1043 37.1364C43.0628 36.8428 42.92 36.5728 42.7005 36.3733C41.0317 34.8105 39.0653 33.5996 36.9186 32.813C34.7718 32.0264 32.4886 31.6801 30.2051 31.7949H17.4872C4.57846 31.7949 0 41.238 0 49.3456C0 56.5949 3.84718 60.4103 11.1282 60.4103H27.6615C27.7869 60.4138 27.9116 60.3901 28.0269 60.3407C28.1422 60.2913 28.2453 60.2174 28.3292 60.1241C28.5061 59.9396 28.6081 59.696 28.6154 59.4405V54.0513C28.6165 52.7868 29.1197 51.5746 30.0144 50.681L42.8277 37.8041C43.0014 37.6248 43.1003 37.386 43.1043 37.1364Z" fill="#FFC344"/>
<path d="M32 55.4173V60H36.5827L50.0986 46.4841L45.5159 41.9014L32 55.4173ZM53.6425 42.9401C54.1192 42.4635 54.1192 41.6937 53.6425 41.2171L50.7829 38.3575C50.3063 37.8808 49.5365 37.8808 49.0599 38.3575L46.8235 40.5938L51.4062 45.1765L53.6425 42.9401Z" fill="#FF4500"/>
</svg>
