<svg width="49" height="62" viewBox="0 0 49 62" fill="none" xmlns="http://www.w3.org/2000/svg">
<path d="M15.8546 20.8177V14.3397C15.8546 9.63842 19.6793 5.81362 24.3807 5.81362C29.082 5.81362 32.9067 9.63842 32.9067 14.3397V20.8177H38.7203V14.3397C38.7203 6.4327 32.2876 0 24.3807 0C16.4737 0 10.041 6.4327 10.041 14.3397V20.8177H15.8546Z" fill="#3692BC"/>
<path d="M32.9062 14.3396V20.8177H36.2746V14.3396C36.2746 9.6384 32.45 5.8136 27.7486 5.8136C27.1721 5.8136 26.6091 5.87191 26.0645 5.98141C29.9617 6.76545 32.9062 10.2148 32.9062 14.3396Z" fill="#0681AF"/>
<path d="M13.4093 20.8177V14.3397C13.4093 7.00244 18.9487 0.935883 26.0648 0.099377C25.5122 0.0345039 24.9504 0 24.3807 0C16.4737 0 10.041 6.4327 10.041 14.3397V20.8177H13.4093Z" fill="#0681AF"/>
<path d="M41.4358 20.6751H7.32595C6.21498 20.6751 5.31445 21.5756 5.31445 22.6866V45.1431H43.4473V22.6866C43.4473 21.5756 42.5467 20.6751 41.4358 20.6751Z" fill="#FFC344"/>
<path d="M12.7391 45.1431V22.6866C12.7391 21.5756 13.6396 20.6751 14.7506 20.6751H7.32595C6.21512 20.6751 5.31445 21.5756 5.31445 22.6866V45.1431H12.7391Z" fill="#FEB137"/>
<path d="M23.781 43.8076C21.9325 43.8076 20.4286 42.3037 20.4286 40.4551V36.1277C18.7992 34.8122 17.9293 32.7747 18.1301 30.6458C18.4146 27.6278 20.9118 25.1944 23.9387 24.9854C24.0854 24.9753 24.2338 24.9702 24.3803 24.9702C27.8425 24.9702 30.659 27.7868 30.659 31.2489C30.659 33.1675 29.8012 34.9422 28.332 36.1279V40.4551C28.332 42.3037 26.828 43.8076 24.9795 43.8076H23.781Z" fill="#FFE177"/>
<path d="M28.6476 31.2488C28.6476 28.7919 26.5711 26.8199 24.0774 26.9922C22.0152 27.1346 20.3269 28.7765 20.1329 30.8347C19.973 32.5295 20.806 34.0435 22.117 34.8655C22.3149 34.9895 22.4402 35.2015 22.4402 35.4349V40.4551C22.4402 41.1957 23.0406 41.7961 23.7811 41.7961H24.9797C25.7202 41.7961 26.3206 41.1957 26.3206 40.4551V35.4386C26.3206 35.2032 26.4466 34.9892 26.646 34.8641C27.848 34.1094 28.6476 32.7729 28.6476 31.2488Z" fill="#3692BC"/>
<path d="M24.6343 40.4551V35.435C24.6343 35.2014 24.5089 34.9896 24.3111 34.8655C23.0001 34.0434 22.1672 32.5295 22.327 30.8347C22.4955 29.0482 23.79 27.5759 25.4774 27.1251C25.0347 27.0076 24.5642 26.9586 24.0774 26.9922C22.0152 27.1346 20.3269 28.7766 20.1329 30.8347C19.973 32.5295 20.806 34.0435 22.117 34.8655C22.3149 34.9896 22.4402 35.2016 22.4402 35.435V40.4551C22.4402 41.1957 23.0406 41.7961 23.7811 41.7961H24.9797C25.1557 41.7961 25.3234 41.7613 25.4774 41.6996C24.9837 41.5018 24.6343 41.0196 24.6343 40.4551Z" fill="#017297"/>
<path d="M46.623 61.447H2.13867C0.957555 61.447 0 60.4895 0 59.3083V47.1392C0 45.958 0.957555 45.0005 2.13867 45.0005H46.623C47.8042 45.0005 48.7617 45.958 48.7617 47.1392V59.3083C48.7617 60.4895 47.8042 61.447 46.623 61.447Z" fill="#FD6930"/>
<path d="M12.5977 51.742L13.6956 51.1081C13.4276 50.8647 13.0233 50.8097 12.6929 51.0005L12.5977 51.0555V51.742Z" fill="#D73D24"/>
<path d="M10.8864 51.742V50.2589C10.8864 50.0177 10.9866 49.8001 11.1473 49.6447C10.9933 49.4957 10.7839 49.4034 10.5527 49.4034C10.0804 49.4034 9.69727 49.7865 9.69727 50.2589V51.0555L10.8864 51.742Z" fill="#D73D24"/>
<path d="M12.5977 54.7055V55.392L12.6929 55.4471C12.8276 55.5248 12.9748 55.5618 13.1199 55.5618C13.3304 55.5618 13.536 55.4827 13.6945 55.3388L12.5977 54.7055Z" fill="#D73D24"/>
<path d="M10.8864 56.1886V54.7055L9.69727 55.392V56.1886C9.69727 56.661 10.0804 57.0441 10.5527 57.0441C10.784 57.0441 10.9933 56.952 11.1473 56.8028C10.9866 56.6474 10.8864 56.4298 10.8864 56.1886Z" fill="#D73D24"/>
<path d="M8.43279 55.134C8.19653 54.7248 8.33683 54.2015 8.74589 53.9654L10.0302 53.2238L8.74589 52.4823C8.33669 52.2461 8.19653 51.7228 8.43279 51.3137C8.47827 51.2349 8.53473 51.1663 8.5986 51.1081L8.41225 51.0005C8.0032 50.7642 7.47979 50.9045 7.24368 51.3136C7.00757 51.7226 7.14773 52.2459 7.55679 52.4822L8.84113 53.2237L7.55679 53.9653C7.14759 54.2015 7.00743 54.7248 7.24368 55.1338C7.40209 55.4083 7.68967 55.5617 7.98537 55.5617C8.13052 55.5617 8.27766 55.5248 8.4124 55.4469L8.59989 55.3387C8.53558 55.2807 8.47841 55.213 8.43279 55.134Z" fill="#D73D24"/>
<path d="M19.3121 51.742V50.2589C19.3121 50.0177 19.4124 49.8001 19.5731 49.6447C19.4191 49.4957 19.2096 49.4034 18.9785 49.4034C18.5062 49.4034 18.123 49.7865 18.123 50.2589V51.0555L19.3121 51.742Z" fill="#D73D24"/>
<path d="M21.0234 51.742L22.1214 51.1081C21.8534 50.8647 21.449 50.8097 21.1187 51.0005L21.0234 51.0555V51.742Z" fill="#D73D24"/>
<path d="M21.0234 54.7055V55.392L21.1187 55.4471C21.2534 55.5248 21.4006 55.5618 21.5457 55.5618C21.7561 55.5618 21.9617 55.4827 22.1203 55.3388L21.0234 54.7055Z" fill="#D73D24"/>
<path d="M19.3121 56.1886V54.7055L18.123 55.392V56.1886C18.123 56.661 18.5062 57.0441 18.9785 57.0441C19.2098 57.0441 19.4191 56.952 19.5731 56.8028C19.4124 56.6474 19.3121 56.4298 19.3121 56.1886Z" fill="#D73D24"/>
<path d="M16.8586 55.134C16.6223 54.7248 16.7626 54.2015 17.1717 53.9654L18.456 53.2238L17.1717 52.4823C16.7625 52.2461 16.6223 51.7228 16.8586 51.3137C16.904 51.2349 16.9605 51.1663 17.0244 51.1081L16.838 51.0005C16.429 50.7642 15.9057 50.9045 15.6695 51.3136C15.4332 51.7228 15.5735 52.2459 15.9826 52.4822L17.2669 53.2237L15.9826 53.9653C15.5734 54.2015 15.4332 54.7248 15.6695 55.1338C15.8279 55.4083 16.1154 55.5617 16.4112 55.5617C16.5563 55.5617 16.7034 55.5248 16.8382 55.4469L17.0257 55.3387C16.9614 55.2807 16.9042 55.213 16.8586 55.134Z" fill="#D73D24"/>
<path d="M27.7399 51.742V50.2589C27.7399 50.0177 27.8401 49.8001 28.0008 49.6447C27.8468 49.4957 27.6374 49.4034 27.4062 49.4034C26.9339 49.4034 26.5508 49.7865 26.5508 50.2589V51.0555L27.7399 51.742Z" fill="#D73D24"/>
<path d="M25.2863 55.134C25.05 54.7248 25.1903 54.2015 25.5994 53.9654L26.8837 53.2238L25.5994 52.4823C25.1902 52.2461 25.05 51.7228 25.2863 51.3137C25.3318 51.2349 25.3882 51.1663 25.4521 51.1081L25.2658 51.0005C24.8566 50.7642 24.3335 50.9045 24.0972 51.3136C23.8609 51.7228 24.0012 52.2459 24.4103 52.4822L25.6946 53.2237L24.4103 53.9653C24.0011 54.2015 23.8609 54.7248 24.0972 55.1338C24.2556 55.4083 24.5432 55.5617 24.8389 55.5617C24.984 55.5617 25.1312 55.5248 25.2659 55.4469L25.4534 55.3387C25.3892 55.2807 25.3319 55.213 25.2863 55.134Z" fill="#D73D24"/>
<path d="M29.4512 51.742L30.5493 51.1081C30.2813 50.8647 29.8769 50.8097 29.5466 51.0005L29.4512 51.0555V51.742Z" fill="#D73D24"/>
<path d="M29.4512 54.7055V55.392L29.5466 55.4471C29.6813 55.5248 29.8284 55.5618 29.9736 55.5618C30.184 55.5618 30.3896 55.4827 30.5482 55.3388L29.4512 54.7055Z" fill="#D73D24"/>
<path d="M27.7399 56.1886V54.7055L26.5508 55.392V56.1886C26.5508 56.661 26.9339 57.0441 27.4062 57.0441C27.6375 57.0441 27.8468 56.952 28.0008 56.8028C27.8401 56.6474 27.7399 56.4298 27.7399 56.1886Z" fill="#D73D24"/>
<path d="M36.1657 51.742V50.2589C36.1657 50.0177 36.2659 49.8001 36.4266 49.6447C36.2726 49.4957 36.0632 49.4034 35.832 49.4034C35.3597 49.4034 34.9766 49.7865 34.9766 50.2589V51.0555L36.1657 51.742Z" fill="#D73D24"/>
<path d="M37.877 51.742L38.9751 51.1081C38.707 50.8647 38.3027 50.8097 37.9723 51.0005L37.877 51.0555V51.742Z" fill="#D73D24"/>
<path d="M37.877 54.7055V55.392L37.9723 55.4471C38.1071 55.5248 38.2542 55.5618 38.3994 55.5618C38.6098 55.5618 38.8154 55.4827 38.9739 55.3388L37.877 54.7055Z" fill="#D73D24"/>
<path d="M33.7121 55.1339C33.4758 54.7247 33.6161 54.2015 34.0252 53.9654L35.3095 53.2238L34.0252 52.4823C33.616 52.246 33.4758 51.7228 33.7121 51.3137C33.7576 51.2349 33.814 51.1663 33.8779 51.1083L33.6915 51.0006C33.2825 50.7644 32.7592 50.9047 32.523 51.3137C32.2867 51.7229 32.427 52.246 32.8361 52.4823L34.1204 53.2238L32.8361 53.9654C32.4269 54.2016 32.2867 54.7249 32.523 55.1339C32.6814 55.4084 32.969 55.5618 33.2647 55.5618C33.4098 55.5618 33.557 55.5249 33.6917 55.4471L33.8792 55.3388C33.815 55.2807 33.7577 55.2129 33.7121 55.1339Z" fill="#D73D24"/>
<path d="M36.1657 56.1886V54.7055L34.9766 55.392V56.1886C34.9766 56.661 35.3597 57.0441 35.832 57.0441C36.0633 57.0441 36.2726 56.952 36.4266 56.8028C36.2659 56.6474 36.1657 56.4298 36.1657 56.1886Z" fill="#D73D24"/>
<path d="M6.84375 59.3083V47.1392C6.84375 45.958 7.8013 45.0005 8.98242 45.0005H2.13867C0.957555 45.0005 0 45.958 0 47.1392V59.3083C0 60.4895 0.957555 61.447 2.13867 61.447H8.98242C7.8013 61.447 6.84375 60.4895 6.84375 59.3083Z" fill="#FD5426"/>
<path d="M15.05 51.3136C14.8138 50.9045 14.2905 50.7641 13.8815 51.0005L12.5971 51.742V50.2589C12.5971 49.7865 12.214 49.4034 11.7417 49.4034C11.2693 49.4034 10.8862 49.7865 10.8862 50.2589V51.742L9.60171 51.0005C9.19265 50.7642 8.66925 50.9045 8.43314 51.3136C8.19703 51.7226 8.33718 52.2459 8.74624 52.4821L10.0306 53.2237L8.74624 53.9652C8.33704 54.2015 8.19688 54.7247 8.43314 55.1338C8.59154 55.4083 8.87912 55.5617 9.17483 55.5617C9.31997 55.5617 9.46711 55.5247 9.60185 55.4469L10.8863 54.7054V56.1884C10.8863 56.6608 11.2694 57.0439 11.7418 57.0439C12.2142 57.0439 12.5973 56.6608 12.5973 56.1884V54.7054L13.8816 55.4469C14.0164 55.5246 14.1635 55.5617 14.3086 55.5617C14.6042 55.5617 14.8918 55.4083 15.0503 55.1338C15.2866 54.7246 15.1463 54.2013 14.7372 53.9652L13.4529 53.2237L14.7372 52.4821C15.146 52.246 15.2862 51.7228 15.05 51.3136Z" fill="white"/>
<path d="M23.4758 51.3136C23.2396 50.9045 22.7163 50.7641 22.3073 51.0005L21.0229 51.742V50.2589C21.0229 49.7865 20.6398 49.4034 20.1674 49.4034C19.6951 49.4034 19.312 49.7865 19.312 50.2589V51.742L18.0275 51.0005C17.6184 50.7642 17.0952 50.9045 16.8589 51.3136C16.6227 51.7228 16.763 52.2459 17.172 52.4821L18.4564 53.2237L17.172 53.9652C16.7628 54.2015 16.6227 54.7247 16.8589 55.1338C17.0173 55.4083 17.3049 55.5617 17.6006 55.5617C17.7458 55.5617 17.8929 55.5247 18.0276 55.4469L19.3121 54.7054V56.1884C19.3121 56.6608 19.6952 57.0439 20.1676 57.0439C20.6399 57.0439 21.0231 56.6608 21.0231 56.1884V54.7054L22.3074 55.4469C22.4421 55.5246 22.5893 55.5617 22.7344 55.5617C23.03 55.5617 23.3176 55.4083 23.4761 55.1338C23.7124 54.7246 23.5721 54.2013 23.163 53.9652L21.8787 53.2237L23.163 52.4821C23.5718 52.246 23.7121 51.7228 23.4758 51.3136Z" fill="white"/>
<path d="M31.9036 51.3136C31.6673 50.9045 31.144 50.7641 30.735 51.0005L29.4505 51.742V50.2589C29.4505 49.7865 29.0674 49.4034 28.595 49.4034C28.1227 49.4034 27.7396 49.7865 27.7396 50.2589V51.742L26.4552 51.0005C26.046 50.7642 25.5229 50.9045 25.2867 51.3136C25.0504 51.7228 25.1907 52.2459 25.5998 52.4821L26.8841 53.2237L25.5998 53.9652C25.1906 54.2015 25.0504 54.7247 25.2867 55.1338C25.4451 55.4083 25.7326 55.5617 26.0283 55.5617C26.1735 55.5617 26.3206 55.5247 26.4554 55.4469L27.7397 54.7054V56.1884C27.7397 56.6608 28.1228 57.0439 28.5952 57.0439C29.0675 57.0439 29.4506 56.6608 29.4506 56.1884V54.7054L30.7351 55.4469C30.8699 55.5246 31.017 55.5617 31.1622 55.5617C31.4577 55.5617 31.7453 55.4083 31.9038 55.1338C32.1401 54.7246 31.9998 54.2013 31.5907 53.9652L30.3064 53.2237L31.5907 52.4821C31.9995 52.246 32.1398 51.7228 31.9036 51.3136Z" fill="white"/>
<path d="M40.0162 53.9654L38.7319 53.2238L40.0162 52.4823C40.4254 52.246 40.5656 51.7227 40.3293 51.3137C40.0931 50.9046 39.5698 50.7642 39.1608 51.0006L37.8763 51.7421V50.259C37.8763 49.7867 37.4932 49.4036 37.0208 49.4036C36.5485 49.4036 36.1653 49.7867 36.1653 50.259V51.7421L34.881 51.0006C34.4719 50.7643 33.9487 50.9046 33.7124 51.3137C33.4762 51.7229 33.6165 52.246 34.0255 52.4823L35.3099 53.2238L34.0255 53.9654C33.6163 54.2016 33.4762 54.7249 33.7124 55.1339C33.8708 55.4084 34.1584 55.5618 34.4541 55.5618C34.5993 55.5618 34.7464 55.5249 34.8811 55.447L36.1655 54.7055V56.1886C36.1655 56.6609 36.5486 57.044 37.021 57.044C37.4933 57.044 37.8764 56.6609 37.8764 56.1886V54.7055L39.1609 55.447C39.2956 55.5247 39.4428 55.5618 39.5879 55.5618C39.8835 55.5618 40.1711 55.4084 40.3296 55.1339C40.5656 54.7247 40.4253 54.2015 40.0162 53.9654Z" fill="white"/>
</svg>
