<svg width="22" height="22" viewBox="0 0 22 22" fill="none" xmlns="http://www.w3.org/2000/svg">
<path d="M18.9994 12.0531C19.0442 11.717 19.0667 11.3697 19.0667 11C19.0667 10.6415 19.0442 10.283 18.9882 9.94685L21.2626 8.17667C21.4642 8.01982 21.5203 7.71732 21.397 7.49324L19.2459 3.77361C19.1115 3.52713 18.8314 3.4487 18.5849 3.52713L15.9072 4.60269C15.347 4.17695 14.7532 3.81843 14.0922 3.54954L13.6889 0.703797C13.6441 0.434909 13.42 0.244446 13.1511 0.244446H8.84887C8.57998 0.244446 8.36711 0.434909 8.3223 0.703797L7.91896 3.54954C7.25795 3.81843 6.65295 4.18815 6.10396 4.60269L3.42628 3.52713C3.1798 3.4375 2.89971 3.52713 2.76526 3.77361L0.625353 7.49324C0.490909 7.72852 0.535723 8.01982 0.759797 8.17667L3.03415 9.94685C2.97813 10.283 2.93332 10.6527 2.93332 11C2.93332 11.3473 2.95572 11.717 3.01174 12.0531L0.73739 13.8233C0.535723 13.9802 0.479705 14.2827 0.602946 14.5068L2.75406 18.2264C2.8885 18.4729 3.16859 18.5513 3.41508 18.4729L6.09276 17.3973C6.65295 17.8231 7.24674 18.1816 7.90776 18.4505L8.31109 21.2962C8.36711 21.5651 8.57998 21.7556 8.84887 21.7556H13.1511C13.42 21.7556 13.6441 21.5651 13.6777 21.2962L14.081 18.4505C14.742 18.1816 15.347 17.8231 15.896 17.3973L18.5737 18.4729C18.8202 18.5625 19.1003 18.4729 19.2347 18.2264L21.3858 14.5068C21.5203 14.2603 21.4642 13.9802 21.2514 13.8233L18.9994 12.0531ZM11 15.0333C8.78165 15.0333 6.96665 13.2183 6.96665 11C6.96665 8.78167 8.78165 6.96667 11 6.96667C13.2183 6.96667 15.0333 8.78167 15.0333 11C15.0333 13.2183 13.2183 15.0333 11 15.0333Z" fill="#1E1E1E"/>
</svg>
