<svg width="23" height="23" viewBox="0 0 23 23" fill="none" xmlns="http://www.w3.org/2000/svg">
<path d="M20.1852 13.1405C19.6932 14.116 19.1223 15.0496 18.4781 15.932C16.6938 16.5268 14.2275 16.8951 11.5025 16.8951C8.77752 16.8951 6.31171 16.5268 4.52738 15.932C3.8832 15.0496 3.31227 14.116 2.82031 13.1405C8.47429 15.3067 14.5281 15.3067 20.1852 13.1405Z" fill="#D6E3FC"/>
<path d="M11.4986 16.8952C14.2236 16.8952 16.6899 16.5268 18.4742 15.932C14.2896 21.5968 8.70799 21.5968 4.52344 15.932C6.30732 16.5268 8.77358 16.8952 11.4986 16.8952Z" fill="#913F0A"/>
<path d="M18.4754 15.9319C19.1196 15.0495 19.6905 14.1158 20.1824 13.1404C14.5253 15.3065 8.47153 15.3065 2.81486 13.1404C3.30682 14.1158 3.87775 15.0495 4.52192 15.9319C8.70917 21.5966 14.2908 21.5966 18.4754 15.9319ZM11.5002 0C17.851 0 23.0005 5.1477 23.0005 11.5002C23.0005 17.8528 17.8514 23.0005 11.5002 23.0005C5.14905 23.0005 0 17.8483 0 11.5002C0 5.15219 5.1486 0 11.5002 0Z" fill="#FFD739"/>
<path d="M8.91874 9.61903C8.79472 9.61903 8.67577 9.56976 8.58807 9.48206C8.50037 9.39436 8.4511 9.27541 8.4511 9.15139C8.4511 8.71521 8.27783 8.29689 7.9694 7.98846C7.66097 7.68004 7.24266 7.50676 6.80648 7.50676C6.37029 7.50676 5.95198 7.68004 5.64355 7.98846C5.33513 8.29689 5.16185 8.71521 5.16185 9.15139C5.16185 9.27541 5.11258 9.39436 5.02488 9.48206C4.93718 9.56976 4.81824 9.61903 4.69421 9.61903C4.57018 9.61903 4.45123 9.56976 4.36353 9.48206C4.27583 9.39436 4.22656 9.27541 4.22656 9.15139C4.22656 8.46715 4.49837 7.81094 4.9822 7.32711C5.46603 6.84328 6.12224 6.57147 6.80648 6.57147C7.49071 6.57147 8.14692 6.84328 8.63075 7.32711C9.11458 7.81094 9.38639 8.46715 9.38639 9.15139C9.38639 9.27541 9.33712 9.39436 9.24942 9.48206C9.16172 9.56976 9.04277 9.61903 8.91874 9.61903Z" fill="#2F393D"/>
<path d="M18.3057 9.61903C18.2443 9.61903 18.1835 9.60694 18.1267 9.58343C18.07 9.55993 18.0184 9.52549 17.975 9.48206C17.9316 9.43864 17.8971 9.38708 17.8736 9.33035C17.8501 9.27361 17.838 9.2128 17.838 9.15139C17.8309 8.71985 17.6545 8.30841 17.3468 8.00576C17.0391 7.70311 16.6248 7.5335 16.1932 7.5335C15.7616 7.5335 15.3473 7.70311 15.0396 8.00576C14.7319 8.30841 14.5555 8.71985 14.5483 9.15139C14.5503 9.21399 14.5396 9.27634 14.517 9.33475C14.4944 9.39315 14.4603 9.44642 14.4167 9.49139C14.3731 9.53636 14.3209 9.57211 14.2632 9.59653C14.2056 9.62094 14.1436 9.63352 14.0809 9.63352C14.0183 9.63352 13.9563 9.62094 13.8986 9.59653C13.8409 9.57211 13.7888 9.53636 13.7452 9.49139C13.7016 9.44642 13.6675 9.39315 13.6448 9.33475C13.6222 9.27634 13.6116 9.21399 13.6135 9.15139C13.6135 8.46715 13.8853 7.81094 14.3691 7.32711C14.853 6.84328 15.5092 6.57147 16.1934 6.57147C16.8777 6.57147 17.5339 6.84328 18.0177 7.32711C18.5015 7.81094 18.7733 8.46715 18.7733 9.15139C18.7733 9.27541 18.7241 9.39436 18.6364 9.48206C18.5487 9.56976 18.4297 9.61903 18.3057 9.61903Z" fill="#2F393D"/>
</svg>
