<svg width="63" height="61" viewBox="0 0 63 61" fill="none" xmlns="http://www.w3.org/2000/svg">
<path fill-rule="evenodd" clip-rule="evenodd" d="M48.434 61H0.854C0.366 61 0 60.512 0 60.024V0.976C0 0.488 0.366 0 0.854 0H48.434C48.922 0 49.41 0.488 49.41 0.976V60.024C49.288 60.512 48.922 61 48.434 61Z" fill="#FFC344"/>
<path fill-rule="evenodd" clip-rule="evenodd" d="M48.433 39.65C47.945 39.65 47.457 39.162 47.457 38.674V33.794C47.457 33.306 47.945 32.94 48.433 32.94C48.921 32.94 49.287 33.306 49.287 33.794V38.674C49.287 39.162 48.921 39.65 48.433 39.65Z" fill="#565E72"/>
<path fill-rule="evenodd" clip-rule="evenodd" d="M48.4332 34.77C40.6252 34.77 34.2812 28.426 34.2812 20.618C34.2812 12.81 40.6252 6.58801 48.4332 6.58801C56.2412 6.58801 62.4632 12.81 62.4632 20.618C62.4632 28.426 56.2412 34.77 48.4332 34.77Z" fill="#52658C"/>
<path fill-rule="evenodd" clip-rule="evenodd" d="M51.973 55.266H44.897C44.409 55.266 44.043 54.9 44.043 54.29V38.674C44.043 38.186 44.409 37.82 44.897 37.82H51.973C52.461 37.82 52.827 38.186 52.827 38.674V54.29C52.827 54.9 52.461 55.266 51.973 55.266Z" fill="#FF4500"/>
<path fill-rule="evenodd" clip-rule="evenodd" d="M48.4345 30.988C42.7005 30.988 38.0645 26.352 38.0645 20.618C38.0645 15.006 42.7005 10.248 48.4345 10.248C54.0465 10.248 58.6825 14.884 58.6825 20.618C58.6825 26.23 54.0465 30.988 48.4345 30.988Z" fill="#B1E2FA"/>
<path fill-rule="evenodd" clip-rule="evenodd" d="M35.9903 6.34404H13.2983C12.8103 6.34404 12.3223 5.85604 12.3223 5.36804C12.3223 4.88004 12.8103 4.51404 13.2983 4.51404H35.9903C36.4783 4.51404 36.8443 4.88004 36.8443 5.36804C36.8443 5.85604 36.4783 6.34404 35.9903 6.34404Z" fill="#FFEECB"/>
<path fill-rule="evenodd" clip-rule="evenodd" d="M35.2572 11.712H20.0073C19.5193 11.712 19.0312 11.346 19.0312 10.858C19.0312 10.37 19.5193 9.88202 20.0073 9.88202H35.1353C35.7453 9.88202 36.1112 10.37 36.1112 10.858C36.1112 11.346 35.7453 11.712 35.2572 11.712Z" fill="#FFEECB"/>
<path fill-rule="evenodd" clip-rule="evenodd" d="M13.1758 11.712H7.31975C6.83175 11.712 6.34375 11.346 6.34375 10.858C6.34375 10.37 6.83175 9.88202 7.31975 9.88202H13.2977C13.7857 9.88202 14.1518 10.37 14.1518 10.858C14.1518 11.346 13.6638 11.712 13.1758 11.712Z" fill="#FFEECB"/>
<path fill-rule="evenodd" clip-rule="evenodd" d="M31.3533 16.592H20.0073C19.5193 16.592 19.0312 16.226 19.0312 15.616C19.0312 15.128 19.5193 14.762 20.0073 14.762H31.3533C31.8413 14.762 32.3293 15.128 32.3293 15.616C32.3293 16.226 31.8413 16.592 31.3533 16.592Z" fill="#FFEECB"/>
<path fill-rule="evenodd" clip-rule="evenodd" d="M13.1758 16.592H7.31975C6.83175 16.592 6.34375 16.226 6.34375 15.616C6.34375 15.128 6.83175 14.762 7.31975 14.762H13.2977C13.7857 14.762 14.1518 15.128 14.1518 15.616C14.1518 16.226 13.6638 16.592 13.1758 16.592Z" fill="#FFEECB"/>
<path fill-rule="evenodd" clip-rule="evenodd" d="M11.7113 56.486H6.58733C5.97733 56.486 5.61133 56.12 5.61133 55.632V39.284C5.61133 38.796 5.97733 38.43 6.58733 38.43H11.7113C12.1993 38.43 12.6873 38.796 12.6873 39.284V55.632C12.6873 56.12 12.1993 56.486 11.7113 56.486Z" fill="#FFD300"/>
<path fill-rule="evenodd" clip-rule="evenodd" d="M22.2044 56.486H16.9584C16.4704 56.486 15.9824 56.12 15.9824 55.632V33.55C15.9824 33.062 16.4704 32.696 16.9584 32.696H22.0824C22.6924 32.696 23.0584 33.062 23.0584 33.55V55.632C23.0584 56.12 22.6924 56.486 22.2044 56.486Z" fill="#00A859"/>
<path fill-rule="evenodd" clip-rule="evenodd" d="M32.5746 56.486H27.3286C26.8406 56.486 26.4746 56.12 26.4746 55.632V42.212C26.4746 41.724 26.8406 41.236 27.3286 41.236H32.5746C33.0626 41.236 33.4286 41.724 33.4286 42.212V55.632C33.4286 56.12 33.0626 56.486 32.5746 56.486Z" fill="#ED3237"/>
<path fill-rule="evenodd" clip-rule="evenodd" d="M34.5262 57.096H4.51416C4.02616 57.096 3.66016 56.73 3.66016 56.242C3.66016 55.754 4.02616 55.266 4.51416 55.266H34.5262C35.1362 55.266 35.5022 55.754 35.5022 56.242C35.5022 56.73 35.1362 57.096 34.5262 57.096Z" fill="#89B0C3"/>
<path fill-rule="evenodd" clip-rule="evenodd" d="M10.9814 32.5739C10.6154 32.5739 10.3714 32.4519 10.2494 32.0859C9.88341 31.7199 10.1274 31.1099 10.4934 30.8659L17.4474 27.3279C17.8134 27.0839 18.4234 27.2059 18.6674 27.6939C18.9114 28.0599 18.6674 28.6699 18.3014 28.9139L11.4694 32.4519C11.2254 32.5739 11.1034 32.5739 10.9814 32.5739ZM28.1834 31.8419C28.0614 31.8419 27.9394 31.8419 27.8174 31.8419L20.9854 28.7919C20.6194 28.5479 20.3754 28.0599 20.6194 27.5719C20.7414 27.2059 21.2294 26.9619 21.7174 27.2059L28.5494 30.1339C29.0374 30.3779 29.1594 30.8659 29.0374 31.3539C28.7934 31.7199 28.5494 31.8419 28.1834 31.8419Z" fill="#89B0C3"/>
<path fill-rule="evenodd" clip-rule="evenodd" d="M9.15066 35.502C7.56466 35.502 6.22266 34.16 6.22266 32.574C6.22266 31.11 7.56466 29.768 9.15066 29.768C10.7367 29.768 12.0787 31.11 12.0787 32.574C12.0787 34.16 10.7367 35.502 9.15066 35.502Z" fill="#55ACEE"/>
<path fill-rule="evenodd" clip-rule="evenodd" d="M19.6428 30.012C17.9348 30.012 16.7148 28.792 16.7148 27.206C16.7148 25.62 18.0568 24.278 19.6428 24.278C21.2288 24.278 22.4488 25.62 22.4488 27.206C22.4488 28.792 21.2288 30.012 19.6428 30.012Z" fill="#55ACEE"/>
<path fill-rule="evenodd" clip-rule="evenodd" d="M30.012 34.648C28.426 34.648 27.084 33.306 27.084 31.72C27.084 30.134 28.426 28.914 30.012 28.914C31.598 28.914 32.818 30.256 32.818 31.72C32.94 33.428 31.598 34.648 30.012 34.648Z" fill="#55ACEE"/>
<path fill-rule="evenodd" clip-rule="evenodd" d="M31.3533 21.35H20.0073C19.5193 21.35 19.0312 20.862 19.0312 20.374C19.0312 19.886 19.5193 19.52 20.0073 19.52H31.3533C31.8413 19.52 32.3293 19.886 32.3293 20.374C32.3293 20.862 31.8413 21.35 31.3533 21.35Z" fill="#FFC344"/>
<path fill-rule="evenodd" clip-rule="evenodd" d="M13.1758 21.35H7.31975C6.83175 21.35 6.34375 20.862 6.34375 20.374C6.34375 19.886 6.83175 19.52 7.31975 19.52H13.2977C13.7857 19.52 14.1518 19.886 14.1518 20.374C14.1518 20.862 13.6638 21.35 13.1758 21.35Z" fill="#FFDFB2"/>
</svg>
