<svg width="24" height="21" viewBox="0 0 24 21" fill="none" xmlns="http://www.w3.org/2000/svg">
<path d="M22.0961 2.05512C20.8537 0.729882 19.149 0 17.2956 0C15.9102 0 14.6415 0.430762 13.5245 1.28022C12.9609 1.709 12.4503 2.23359 12 2.84587C11.5499 2.23377 11.0391 1.709 10.4753 1.28022C9.35852 0.430762 8.08978 0 6.70441 0C4.85101 0 3.14612 0.729882 1.90375 2.05512C0.676208 3.36488 0 5.1542 0 7.0937C0 9.08994 0.756409 10.9173 2.38037 12.8445C3.83313 14.5685 5.92108 16.3185 8.33899 18.345C9.16461 19.0371 10.1005 19.8215 11.0722 20.6571C11.3289 20.8783 11.6583 21 12 21C12.3415 21 12.6711 20.8783 12.9274 20.6575C13.8992 19.8217 14.8356 19.0369 15.6616 18.3445C18.0791 16.3183 20.1671 14.5685 21.6198 12.8443C23.2438 10.9173 24 9.08994 24 7.09352C24 5.1542 23.3238 3.36488 22.0961 2.05512Z" fill="#FF0A00"/>
</svg>
