<svg width="24" height="21" viewBox="0 0 24 21" fill="none" xmlns="http://www.w3.org/2000/svg">
<path d="M0.695312 17.5V20.3H11.942H23.1886V17.5H11.942H0.695312Z" fill="#DFE7F4"/>
<path d="M11.942 0.700012H0.695312V3.50001H11.942H23.1886V0.700012H11.942Z" fill="#DFE7F4"/>
<path d="M11.9453 0.700012H23.192V3.50001H11.9453V0.700012Z" fill="#C7CFE1"/>
<path d="M11.9453 17.5H23.192V20.3H11.9453V17.5Z" fill="#C7CFE1"/>
<path d="M11.9451 3.5H1.39844V17.5H11.9451H22.4918V3.5H11.9451Z" fill="#FF641A"/>
<path d="M11.9453 3.5H22.492V17.5H11.9453V3.5Z" fill="#F03800"/>
<path d="M0 16.8V21H11.9467H23.8933V16.8H11.9467H0ZM3.78 19.6H1.4V18.2H3.78V19.6ZM7.51333 19.6H5.18V18.2H7.51333V19.6ZM11.2467 19.6H8.91333V18.2H11.2467V19.6ZM20.1133 18.2H22.4933V19.6H20.1133V18.2ZM16.38 18.2H18.7133V19.6H16.38V18.2ZM12.6467 18.2H14.98V19.6H12.6467V18.2Z" fill="#404A80"/>
<path d="M11.9467 0H0V4.2H11.9467H23.8933V0H11.9467ZM3.78 2.8H1.4V1.4H3.78V2.8ZM7.51333 2.8H5.18V1.4H7.51333V2.8ZM11.2467 2.8H8.91333V1.4H11.2467V2.8ZM14.98 2.8H12.6467V1.4H14.98V2.8ZM18.7134 2.8H16.38V1.4H18.7134V2.8ZM22.4933 2.8H20.1087V1.4H22.4933V2.8Z" fill="#404A80"/>
<path d="M14.9826 2.8H12.6492V1.4H14.9826V2.8ZM18.7159 2.8H16.3826V1.4H18.7159V2.8ZM11.9492 0V4.2H23.8959V0H11.9492ZM22.4959 2.8H20.1113V1.4H22.4959V2.8Z" fill="#283366"/>
<path d="M23.8959 16.8H11.9492V21H23.8959V16.8ZM14.9826 19.6H12.6492V18.2H14.9826V19.6ZM18.7159 19.6H16.3826V18.2H18.7159V19.6ZM22.4959 19.6H20.1159V18.2H22.4959V19.6Z" fill="#283366"/>
<path d="M11.9437 7.79224L9.84375 6.39233V14.6077L11.9437 13.2078L16.0057 10.5L11.9437 7.79224Z" fill="#F0F7FF"/>
<path d="M11.9453 7.79218V13.2077L16.0072 10.5L11.9453 7.79218Z" fill="#DFE7F4"/>
</svg>
