<svg width="22" height="22" viewBox="0 0 22 22" fill="none" xmlns="http://www.w3.org/2000/svg">
<path d="M11.6446 0C10.2228 0 9.02356 1.19921 9.02356 2.62109C9.02356 4.04296 10.2228 5.24218 11.6446 5.24218C13.0665 5.24218 14.2228 4.04296 14.2228 2.62109C14.2228 1.19921 13.0665 0 11.6446 0Z" fill="#fff"/>
<path d="M14.506 5.24218C13.7977 6.0276 12.7831 6.53124 11.6446 6.53124C10.5061 6.53124 9.44865 6.0276 8.74031 5.24218C8.1219 5.92792 7.7345 6.82626 7.7345 7.8203V8.46483C7.7345 8.82108 8.02277 9.10936 8.37903 9.10936H14.8673C15.2235 9.10936 15.5118 8.82108 15.5118 8.46483V7.8203C15.5118 6.82626 15.1244 5.92792 14.506 5.24218Z" fill="#fff"/>
<path d="M6.22709 19.7829L2.94252 13.1978C2.62537 12.5619 1.85348 12.3026 1.21681 12.618L0.358341 13.0433C0.038697 13.2018 -0.0913692 13.5903 0.0681735 13.9093L3.93535 21.6437C4.09438 21.9627 4.48123 22.0896 4.79829 21.9332L5.64572 21.5134C6.28488 21.1968 6.5454 20.4212 6.22709 19.7829Z" fill="#fff"/>
<path d="M21.4717 10.6433C20.9431 10.2566 20.2084 10.334 19.7701 10.8109L16.2467 15.1422C16.0018 15.4 15.5377 15.5547 15.2928 15.5547H12.2892C11.9283 15.5547 11.6447 15.2711 11.6447 14.9101C11.6447 14.5491 11.9283 14.2656 12.2892 14.2656C13.1525 14.2656 14.1082 14.2656 14.8674 14.2656C15.5763 14.2656 16.1564 13.6855 16.1564 12.9765C16.1564 12.2676 15.5763 11.6875 14.8674 11.6875C11.8404 11.6875 14.7277 11.6875 11.49 11.6875C11.1688 11.6875 11.0086 11.4838 10.7553 11.262C9.758 10.3646 8.26527 9.93229 6.75406 10.2826C5.91497 10.477 5.34911 10.816 4.77522 11.2705L4.7561 11.255L3.82385 12.0755L7.48753 19.4218H8.57241H14.8674C16.0791 19.4218 17.2393 18.8418 17.9611 17.875L21.7423 12.4609C22.1677 11.8937 22.0517 11.0688 21.4717 10.6433Z" fill="#fff"/>
</svg>
