<svg width="22" height="19" viewBox="0 0 22 19" fill="none" xmlns="http://www.w3.org/2000/svg">
<path d="M8.04863 8.25498C10.3282 8.25498 12.1761 6.40704 12.1761 4.12749C12.1761 1.84794 10.3282 0 8.04863 0C5.76908 0 3.92114 1.84794 3.92114 4.12749C3.92114 6.40704 5.76908 8.25498 8.04863 8.25498Z" fill="#fff"/>
<path d="M8.53876 11.9697H7.55848L7.04639 15.7933L8.04862 17.046L9.05086 15.7933L8.53876 11.9697Z" fill="#fff"/>
<path d="M7.54115 10.7315H8.55594L8.76231 9.49323H7.33478L7.54115 10.7315Z" fill="#fff"/>
<path d="M5.78397 15.8912L6.39076 11.3606L6.0795 9.49323H4.95299C2.21753 9.49323 0 11.7108 0 14.4462V18.0371C0 18.379 0.277202 18.6563 0.619123 18.6563H7.75105L5.91416 16.3601C5.80857 16.2282 5.76152 16.0587 5.78397 15.8912Z" fill="#fff"/>
<path d="M12.2818 9.62535C11.9166 9.53933 11.5358 9.49323 11.1443 9.49323H10.0177L9.70653 11.3606L10.3133 15.8912C10.3358 16.0587 10.2887 16.2282 10.1831 16.3602L8.34619 18.6563H11.5587C11.1691 18.1385 10.9379 17.4952 10.9379 16.7989V12.1761C10.9379 11.1189 11.4708 10.184 12.2818 9.62535Z" fill="#fff"/>
<path d="M19.2754 10.3187H18.9245V9.28685C18.9245 8.49028 18.2765 7.84222 17.4799 7.84222H15.8289C15.0323 7.84222 14.3843 8.49028 14.3843 9.28685V10.3187H14.0335C13.0077 10.3187 12.1761 11.1503 12.1761 12.1761V12.5888H21.1327V12.1761C21.1327 11.1503 20.3012 10.3187 19.2754 10.3187ZM17.6863 10.3187H15.6225V9.28685C15.6225 9.17305 15.7151 9.08047 15.8289 9.08047H17.4799C17.5937 9.08047 17.6863 9.17305 17.6863 9.28685V10.3187Z" fill="#fff"/>
<path d="M12.1761 16.7989C12.1761 17.8247 13.0077 18.6562 14.0335 18.6562H19.2754C20.3012 18.6562 21.1327 17.8247 21.1327 16.7989V13.8271H12.1761V16.7989Z" fill="#fff"/>
</svg>
