<svg width="22" height="24" viewBox="0 0 22 24" fill="none" xmlns="http://www.w3.org/2000/svg">
<path d="M17.6127 4.22672H16.2037C15.8143 4.22672 15.4992 4.54181 15.4992 4.93124C15.4992 5.32063 15.8143 5.63578 16.2037 5.63578H17.6127C18.0021 5.63578 18.3173 5.32068 18.3173 4.93124C18.3172 4.54181 18.0021 4.22672 17.6127 4.22672Z" fill="#fff"/>
<path d="M10.4934 1.79808L9.78892 0.389063C9.61352 0.0409232 9.19174 -0.0987171 8.8436 0.0739701C8.49546 0.248017 8.35441 0.671156 8.52851 1.0193L9.23304 2.42831C9.40685 2.77504 9.82788 2.9175 10.1784 2.7434C10.5264 2.56936 10.6675 2.14622 10.4934 1.79808Z" fill="#fff"/>
<path d="M15.1099 0.0739616C14.7631 -0.0987255 14.3386 0.0409617 14.1645 0.389055L13.46 1.79807C13.2859 2.14621 13.427 2.5693 13.7751 2.74339C14.1266 2.91796 14.5471 2.77386 14.7204 2.4283L15.4249 1.01929C15.599 0.671148 15.4579 0.248008 15.1099 0.0739616Z" fill="#fff"/>
<path d="M7.74965 4.22672H6.34064C5.95125 4.22672 5.63611 4.54181 5.63611 4.93124C5.63611 5.32063 5.9512 5.63578 6.34064 5.63578H7.74965C8.13904 5.63578 8.45418 5.32068 8.45418 4.93124C8.45418 4.54181 8.13904 4.22672 7.74965 4.22672Z" fill="#fff"/>
<path d="M3.5226 11.3188H0.70453C0.315468 11.3188 0 11.6342 0 12.0233V23.2954C0 23.6845 0.315421 23.9999 0.70453 23.9999H3.52256C3.91162 23.9999 4.22709 23.6845 4.22709 23.2954V12.0233C4.22709 11.6342 3.91171 11.3188 3.5226 11.3188Z" fill="#fff"/>
<path d="M21.1213 13.1863C20.997 12.0934 19.9761 11.3188 18.8762 11.3188H13.3836C13.8504 10.483 14.101 8.11892 14.0899 7.15321C14.0714 5.55468 12.7476 4.27368 11.1491 4.27368H10.5677C10.1783 4.27368 9.86319 4.58878 9.86319 4.97821C9.86319 6.60735 9.22884 9.54791 8.03245 10.7443C7.22718 11.5496 6.53878 11.8414 5.63611 12.2925V22.8637C7.01812 23.3243 8.77284 24 11.4474 24H16.0559C17.5744 24 18.7571 22.5936 18.1687 21.1077C19.0652 20.8635 19.7263 20.0413 19.7263 19.0684C19.7263 18.7939 19.6733 18.5311 19.5777 18.2896C21.0884 17.878 21.6445 16.0126 20.596 14.8413C20.9812 14.411 21.1936 13.8223 21.1213 13.1863Z" fill="#fff"/>
</svg>
