<svg width="23" height="19" viewBox="0 0 23 19" fill="none" xmlns="http://www.w3.org/2000/svg">
<path d="M8.75977 8.82617C9.13127 8.82617 9.43359 9.1285 9.43359 9.5C9.43359 9.8715 9.13127 10.1738 8.75977 10.1738C8.38826 10.1738 8.08594 9.8715 8.08594 9.5C8.08594 9.1285 8.38826 8.82617 8.75977 8.82617Z" fill="#fff"/>
<path d="M9.43359 6.19824V7.59441C9.22291 7.51939 8.99605 7.47852 8.75977 7.47852C7.64525 7.47852 6.73828 8.38549 6.73828 9.5C6.73828 10.6145 7.64525 11.5215 8.75977 11.5215C8.99605 11.5215 9.22291 11.4806 9.43359 11.4056V12.8018C9.21303 12.8467 8.98752 12.8691 8.75977 12.8691C6.90225 12.8691 5.39062 11.3575 5.39062 9.5C5.39062 7.64248 6.90225 6.13086 8.75977 6.13086C8.98752 6.13086 9.21303 6.15332 9.43359 6.19824Z" fill="#fff"/>
<path d="M4.04297 9.5C4.04297 12.101 6.15879 14.2168 8.75977 14.2168C8.98662 14.2168 9.21168 14.2011 9.43359 14.1687V18.2598H7.41211C7.04016 18.2598 6.73828 17.9579 6.73828 17.5859V16.6318C6.18709 16.475 5.65566 16.2531 5.14939 15.9688L4.47152 16.6471C4.20828 16.9103 3.78197 16.9103 3.51873 16.6471L1.6127 14.741C1.34936 14.4777 1.3504 14.0505 1.6127 13.7882L2.29102 13.1099C2.00621 12.6041 1.78475 12.0727 1.62797 11.5215H0.673828C0.301875 11.5215 0 11.2196 0 10.8477V8.15234C0 7.78039 0.301875 7.47852 0.673828 7.47852H1.62797C1.78475 6.92732 2.00621 6.3959 2.29102 5.88963L1.6127 5.21176C1.3504 4.94946 1.34936 4.5223 1.6127 4.25897L3.51873 2.35293C3.78197 2.08969 4.20828 2.08969 4.47152 2.35293L5.14984 3.03125C5.65566 2.74645 6.18709 2.52498 6.73828 2.3682V1.41406C6.73828 1.04211 7.04016 0.740234 7.41211 0.740234H9.43359V4.83127C9.21168 4.79893 8.98662 4.7832 8.75977 4.7832C6.15879 4.7832 4.04297 6.89902 4.04297 9.5Z" fill="#fff"/>
<path d="M18.957 1.13465V4.7832H22.6056L18.957 1.13465ZM12.8027 4.7832H15.5879C15.9598 4.7832 16.2617 5.08508 16.2617 5.45703C16.2617 5.82898 15.9598 6.13086 15.5879 6.13086H12.8027C12.4308 6.13086 12.1289 5.82898 12.1289 5.45703C12.1289 5.08508 12.4308 4.7832 12.8027 4.7832ZM19.6309 14.2168H12.8027C12.4308 14.2168 12.1289 13.9149 12.1289 13.543C12.1289 13.171 12.4308 12.8691 12.8027 12.8691H19.6309C20.0028 12.8691 20.3047 13.171 20.3047 13.543C20.3047 13.9149 20.0028 14.2168 19.6309 14.2168ZM19.6309 11.5215H12.8027C12.4308 11.5215 12.1289 11.2196 12.1289 10.8477C12.1289 10.4757 12.4308 10.1738 12.8027 10.1738H19.6309C20.0028 10.1738 20.3047 10.4757 20.3047 10.8477C20.3047 11.2196 20.0028 11.5215 19.6309 11.5215ZM19.6309 8.82617H12.8027C12.4308 8.82617 12.1289 8.5243 12.1289 8.15234C12.1289 7.78039 12.4308 7.47852 12.8027 7.47852H19.6309C20.0028 7.47852 20.3047 7.78039 20.3047 8.15234C20.3047 8.5243 20.0028 8.82617 19.6309 8.82617ZM18.2832 6.13086C17.9113 6.13086 17.6094 5.82898 17.6094 5.45703V0.740234H10.7812V18.2598H22.3262C22.6981 18.2598 23 17.9579 23 17.5859V6.13086H18.2832Z" fill="#fff"/>
</svg>
