<svg width="20" height="22" viewBox="0 0 20 22" fill="none" xmlns="http://www.w3.org/2000/svg">
<path d="M7.08985 8.37891C4.95736 8.37891 3.22267 10.1136 3.22267 12.2461C3.22267 13.0799 3.49393 13.8478 3.94446 14.4801L0.188815 18.2357C-0.0629385 18.4875 -0.0629385 18.8954 0.188815 19.1471C0.440569 19.3989 0.848429 19.3989 1.10023 19.1471L4.85587 15.3915C5.48811 15.842 6.256 16.1133 7.08985 16.1133C9.22235 16.1133 10.957 14.3786 10.957 12.2461C10.957 10.1136 9.22235 8.37891 7.08985 8.37891Z" fill="#fff"/>
<path d="M18.0469 0C16.939 0 16.1133 0.89882 16.1133 1.93359C16.1133 2.26875 16.2035 2.60386 16.3711 2.90039L16.9383 3.86719H5.80078C5.4398 3.86719 5.15625 4.15074 5.15625 4.51172V7.47656C5.74926 7.21875 6.4066 7.08984 7.08984 7.08984C9.93871 7.08984 12.2461 9.39722 12.2461 12.2461C12.2461 15.0949 9.93871 17.4023 7.08984 17.4023C6.4066 17.4023 5.74926 17.2734 5.15625 17.0156V22H19.9805V1.93359C19.9805 0.863629 19.1168 0 18.0469 0ZM17.8535 15.2753L15.2753 17.8535C15.0435 18.1113 14.605 18.1114 14.373 17.8535L13.084 16.5644C12.8262 16.3195 12.8262 15.907 13.084 15.6621C13.3289 15.4043 13.7413 15.4043 13.9863 15.6621L14.8242 16.4871L16.9512 14.373C17.1961 14.1152 17.6086 14.1152 17.8535 14.373C18.1113 14.6179 18.1113 15.0304 17.8535 15.2753ZM17.8535 11.4082L15.2753 13.9863C15.0435 14.2441 14.605 14.2442 14.373 13.9863L13.084 12.6972C12.8262 12.4523 12.8262 12.0398 13.084 11.7949C13.3289 11.5371 13.7413 11.5371 13.9863 11.7949L14.8242 12.6199L16.9512 10.5058C17.1961 10.248 17.6086 10.248 17.8535 10.5058C18.1113 10.7507 18.1113 11.1632 17.8535 11.4082ZM17.8535 7.54097L15.2753 10.1191C15.0435 10.3769 14.605 10.377 14.373 10.1191L13.084 8.83003C12.8262 8.58511 12.8262 8.17261 13.084 7.92769C13.3289 7.66992 13.7413 7.66992 13.9863 7.92769L14.8242 8.75269L16.9512 6.63863C17.1961 6.38086 17.6086 6.38086 17.8535 6.63863C18.1113 6.88355 18.1113 7.29605 17.8535 7.54097Z" fill="#fff"/>
<path d="M14.8242 1.93359C14.8242 2.15269 14.85 2.35894 14.8887 2.57813H9.69379C11.0344 2.1398 12.7746 1.57261 15.0176 0.850739C14.8887 1.18589 14.8242 1.55972 14.8242 1.93359Z" fill="#fff"/>
</svg>
